<?xml version="1.0" encoding="UTF-8"?>
<svg id="Layer_2" data-name="Layer 2" xmlns="http://www.w3.org/2000/svg" width="21.95" height="16.89" viewBox="0 0 21.95 16.89">
  <defs>
    <style>
      .cls-1 {
        fill: #09c5be;
        stroke-width: 0px;
      }
    </style>
  </defs>
  <g id="Layer_1-2" data-name="Layer 1">
    <g>
      <path class="cls-1" d="m1.63.24l7.63,8.65c.43.49,1.06.77,1.71.77s1.28-.28,1.71-.77L20.18.39c.06-.07.14-.12.21-.17-.32-.14-.67-.22-1.04-.22H2.59c-.35,0-.69.07-1,.2.01.01.03.02.04.04Z"/>
      <path class="cls-1" d="m21.55,1.21c-.03.09-.08.17-.15.25l-7.49,8.5c-.74.84-1.81,1.33-2.93,1.33s-2.19-.48-2.93-1.33L.41,1.31s-.03-.04-.04-.06c-.24.39-.37.85-.37,1.33v11.71c0,1.43,1.16,2.59,2.59,2.59h16.77c1.43,0,2.59-1.16,2.59-2.59V2.59c0-.51-.15-.98-.4-1.38Z"/>
    </g>
  </g>
</svg>