<?xml version="1.0" encoding="UTF-8"?>
<svg id="Layer_2" data-name="Layer 2" xmlns="http://www.w3.org/2000/svg" width="16.56" height="21.45" viewBox="0 0 16.56 21.45">
  <defs>
    <style>
      .cls-1 {
        fill: #09c5be;
        stroke-width: 0px;
      }
    </style>
  </defs>
  <g id="Layer_1-2" data-name="Layer 1">
    <g>
      <path class="cls-1" d="m8.28,5.42c-1.36,0-2.47,1.11-2.47,2.47s1.11,2.47,2.47,2.47,2.47-1.11,2.47-2.47-1.11-2.47-2.47-2.47Z"/>
      <path class="cls-1" d="m8.28,0C3.71,0,0,3.71,0,8.28c0,3.9,6.02,10.96,7.8,12.95.26.29.71.29.97,0,1.77-1.99,7.8-9.05,7.8-12.95C16.56,3.71,12.86,0,8.28,0Zm0,11.98c-2.26,0-4.09-1.84-4.09-4.09s1.84-4.09,4.09-4.09,4.09,1.84,4.09,4.09-1.84,4.09-4.09,4.09Z"/>
    </g>
  </g>
</svg>