<?xml version="1.0" encoding="UTF-8"?>
<svg id="Layer_2" data-name="Layer 2" xmlns="http://www.w3.org/2000/svg" width="335.33" height="61.42" viewBox="0 0 335.33 61.42">
  <defs>
    <style>
      .cls-1 {
        fill: #fff;
      }

      .cls-1, .cls-2 {
        stroke-width: 0px;
      }

      .cls-2 {
        fill: #0bc5bb;
      }
    </style>
  </defs>
  <g id="Layer_1-2" data-name="Layer 1">
    <g>
      <path class="cls-1" d="m203.36,26.12h-11.21c-.14-.93-.33-1.87-.55-2.77-1.08-4.38-3.1-8.4-5.85-11.82-5.64-7.02-14.29-11.53-23.97-11.53-16.93,0-30.72,13.77-30.72,30.72s13.79,30.7,30.72,30.7c5.1,0,9.92-1.25,14.16-3.47,3.22-1.67,6.11-3.9,8.54-6.57,4.01-4.39,6.74-9.94,7.68-16.06h11.21c2.54,0,4.6-2.06,4.6-4.6s-2.06-4.6-4.6-4.6m-28.03,26.13c-2.81,1.77-5.98,3.01-9.38,3.58-1.35.22-2.75.34-4.17.34-14.04,0-25.46-11.41-25.46-25.44s11.42-25.46,25.46-25.46c5.55,0,10.69,1.79,14.86,4.81,2.67,1.92,4.94,4.34,6.69,7.12,2.47,3.92,3.9,8.56,3.9,13.52,0,9.05-4.76,17.02-11.91,21.53"/>
      <path class="cls-2" d="m178.07,18c-3.55-2.79-8.03-4.46-12.89-4.46-11.52,0-20.88,9.36-20.88,20.88,0,4.78,1.62,9.19,4.32,12.71-4.87-3.82-8-9.76-8-16.42,0-11.52,9.37-20.89,20.89-20.89,6.74,0,12.74,3.21,16.56,8.18"/>
      <path class="cls-2" d="m151.86,35.07c0,6.56,2.75,12.48,7.99,16.48-10.8-2.53-13.26-10.03-13.26-16.58,0-10.42,8.75-18.91,19.17-18.91,1.98,0,3.89.3,5.68.88-.37-.02-.76-.03-1.15-.03-10.43,0-18.43,7.74-18.43,18.16"/>
      <path class="cls-2" d="m170.93,49.38c-1.85.94-3.87,1.61-5.99,1.96-.74.13-1.49.21-2.26.25-4.87-3.42-8.06-9.08-8.06-15.47,0-3.95,1.22-7.62,3.3-10.65-.59,1.81-.89,3.73-.89,5.71,0,8.7,5.89,16.02,13.9,18.21"/>
      <path class="cls-1" d="m35.86,27.12h-8.83c0-.69,0-1.33,0-1.96,0-1.6-.71-2.86-2.18-3.38-1.57-.55-3.25-.89-4.91-1.09-2.7-.32-5.4-.14-8.01.67-2.22.69-3.09,1.95-3.09,4.26,0,3.45,0,6.89,0,10.34,0,2.05.77,3.21,2.69,3.94,2.68,1.01,5.48,1.06,8.28.85,1.41-.11,2.85-.33,4.21-.74,2.22-.67,3-1.9,3.01-4.2,0-.48,0-.97,0-1.51h8.71c.61,4.8-.35,7.94-5.63,9.89-2.74,1.01-5.62,1.33-8.51,1.47-4.95.23-9.9.21-14.73-1.11-1.8-.49-3.49-1.24-4.86-2.57C.72,40.7.03,39.16.02,37.35,0,33.09.04,28.83,0,24.57c-.02-3.01,1.36-5.13,3.96-6.53,2.06-1.11,4.3-1.64,6.6-1.93,5.26-.66,10.52-.67,15.77.16,2.16.34,4.26.91,6.14,2.08,2.14,1.33,3.36,3.21,3.4,5.77.01.97,0,1.94,0,3"/>
      <path class="cls-1" d="m49.53,31.64c-2.89,0-5.68,0-8.47,0-.58-3.33.18-5.86,3.49-6.94,2.23-.73,4.61-1.21,6.95-1.3,3.37-.14,6.77.06,10.14.32,2.21.17,4.34.83,6.13,2.25,1.44,1.14,2.23,2.7,2.26,4.47.09,4.87.03,9.74.03,14.73-2.45,0-4.85.01-7.24-.02-.18,0-.44-.32-.53-.54-.15-.35-.18-.75-.28-1.17-2.82,1.84-5.99,2.18-9.18,2.31-2.7.11-5.42.12-8.05-.63-.92-.26-1.83-.67-2.66-1.17-1.36-.81-1.94-2.13-2-3.69,0-.16,0-.33,0-.49-.35-4.33,1.85-5.68,5.08-6.33,4.75-.95,9.51-.81,14.21.43.59.16,1.15.42,1.82.68,0-1.44.09-2.82-.03-4.19-.12-1.39-1.09-2.16-2.4-2.48-2.25-.55-4.53-.5-6.79-.14-1.78.28-2.66.84-2.48,3.01.02.28,0,.57,0,.9m5.59,10.49c1.45-.24,3.21-.48,4.94-.85.84-.18,1.22-.83,1.21-1.76,0-1-.04-1.94-1.17-2.28-.86-.26-1.76-.54-2.65-.54-2.29,0-4.6.01-6.87.3-1.5.19-1.7.81-1.63,2.78.04,1.05.51,1.62,1.77,1.84,1.34.23,2.7.32,4.39.51"/>
      <path class="cls-1" d="m125.22,35.38h-20.9c0,1.23-.1,2.4.03,3.54.12,1.1.95,1.8,1.97,2.08,2.85.77,5.73.72,8.59.03,1.1-.27,1.51-.93,1.56-2.07.01-.32.03-.63.05-1.01h8.59c.52,3.46-1.17,5.91-4.93,6.78-2.2.51-4.48.82-6.74.94-4.1.22-8.21.22-12.21-.92-2.72-.78-5.24-2.12-5.55-5.2-.33-3.34-.28-6.75,0-10.1.23-2.73,2.35-4.23,4.81-4.93,2.11-.6,4.32-1.04,6.5-1.15,3.83-.2,7.69-.27,11.49.52.82.17,1.65.37,2.44.66,3.08,1.12,4.29,2.9,4.3,6.19,0,1.49,0,2.99,0,4.63m-20.87-3.12h12.12c0-.41,0-.76,0-1.11,0-2.4-.38-3.07-2.78-3.37-2.04-.26-4.17-.3-6.2-.02-2.79.38-3.49,1.59-3.13,4.5"/>
      <path class="cls-1" d="m85.64,23.87h7.24v4.08h-7.31v17.16h-8.79v-17.11h-3.32v-4.09h3.17c.09-1.04.13-1.97.25-2.89.28-2.05,1.51-3.36,3.43-3.96,1.2-.38,2.46-.71,3.71-.75,3.12-.11,6.25-.03,9.45-.03v3.77c-.93,0-1.84,0-2.74,0-.75,0-1.5.04-2.25.06-2.45.07-3.15,1.48-2.84,3.75"/>
      <path class="cls-1" d="m119.47,16.12c-2.14,1.58-4.17,2.97-6.07,4.52-1.2.98-2.43,1.5-3.99,1.32-.86-.1-1.75-.02-2.85-.02.73-.95,1.34-1.76,1.96-2.57.71-.93,1.4-1.88,2.14-2.78.22-.26.61-.53.93-.54,2.44-.04,4.89-.02,7.33-.02.11,0,.23.04.55.1"/>
      <path class="cls-1" d="m249.97,26.7h-8.71c0-.89-.04-1.72,0-2.56.08-1.46-.66-2.39-1.96-2.79-1.85-.74-9.39-1.45-13.47.32-.77.34-1.12,1.06-1.11,1.92,0,.42.03.85,0,1.27-.08,1.03.43,1.78,1.33,2.04,1.77.51,3.57.96,5.39,1.2,4.5.61,9.08.66,13.47,2.01.83.26,1.65.61,2.41,1.03,2.03,1.1,3.11,2.8,3.01,5.16-.04,1-.04,2.01-.16,3-.2,1.74-1.22,2.97-2.66,3.88-2.09,1.32-4.44,1.79-6.83,2.1-4.31.55-8.64.58-12.96.21-2.89-.24-5.74-.69-8.35-2.08-2.45-1.31-3.81-3.26-3.66-6.12.04-.87,0-1.74,0-2.66h8.83c0,.9.04,1.77,0,2.64-.07,1.28.53,2.18,1.68,2.56,1.25.41,2.56.75,3.87.87,2.95.26,5.92.32,8.82-.46,2.55-.68,2.88-1.8,2.38-4.54-.11-.6-1.04-1.31-1.72-1.48-2.1-.52-4.25-.9-6.39-1.17-4.12-.52-8.3-.62-12.28-2-.82-.28-1.62-.68-2.36-1.14-1.71-1.05-2.57-2.61-2.57-4.62,0-.36,0-.72,0-1.07,0-3.68,1.21-5.68,4.7-6.87,2.19-.75,4.52-1.2,6.82-1.43,2.78-.28,5.59-.31,8.39-.22,3.25.11,6.47.52,9.5,1.87,3.06,1.36,4.85,3.52,4.6,7.03-.05.68,0,1.36,0,2.13"/>
      <path class="cls-1" d="m284.64,45.06h-7.61c-.16-.91-.32-1.78-.47-2.63-5.33,3.85-11.1,4.08-17.04,2.24-2.8-.87-4.22-3.1-4.28-6.01-.1-4.74-.06-9.49-.07-14.23,0-.16.04-.31.06-.53h8.81v1.04c0,3.84,0,7.67,0,11.51,0,3.1.74,4.06,3.79,4.61,2.01.36,4.02.29,5.91-.62,1.35-.65,2.08-1.71,2.08-3.24,0-4.03,0-8.06,0-12.09,0-.38,0-.77,0-1.21h8.83v21.16Z"/>
      <path class="cls-1" d="m305.7,32.26c0-3.1-2.67-3.59-4.77-3.49-1.59.07-3.69,1.47-3.69,2.99,0,4.03,0,8.06,0,12.09v1.21h-8.83v-21.16h7.61c.16.91.32,1.78.47,2.63,5.33-3.85,17.8-2.88,18.01,3.52.01.66.03,1.56.04,2.22h-8.83Z"/>
      <path class="cls-1" d="m327.53,45.08h-8.88v-17.13h-3.25v-4.06h3.13c.08-.86.17-1.62.22-2.39.15-2.27,1.36-3.75,3.47-4.46,1.13-.38,2.33-.7,3.51-.73,3.18-.1,6.37-.03,9.62-.03v3.74c-.69,0-1.39,0-2.09,0-.94.01-1.89-.03-2.83.07-2.48.26-3.09,1.07-2.84,3.7h7.16v4.11h-7.2v17.19Z"/>
    </g>
  </g>
</svg>