<?xml version="1.0" encoding="UTF-8"?>
<svg id="Layer_2" data-name="Layer 2" xmlns="http://www.w3.org/2000/svg" width="180.52" height="128.38" viewBox="0 0 180.52 128.38">
  <defs>
    <style>
      .cls-1 {
        fill: none;
      }

      .cls-1, .cls-2 {
        stroke: #05386b;
        stroke-linecap: round;
        stroke-linejoin: round;
        stroke-width: 2.5px;
      }

      .cls-2 {
        fill: #05386b;
      }
    </style>
  </defs>
  <g id="Layer_1-2" data-name="Layer 1">
    <g>
      <path class="cls-1" d="m154.9,111.95H8.67c-4.1,0-7.42-3.32-7.42-7.42h0s178.02,0,178.02,0h0c0,6.31-20.27,7.42-24.37,7.42Z"/>
      <path class="cls-1" d="m18.62,111.95h8.52v7.53c0,4.22-3.43,7.65-7.65,7.65h-.87v-15.17h0Z"/>
      <circle class="cls-1" cx="92.33" cy="8.31" r="7.06"/>
      <polyline class="cls-1" points="97.25 99.34 88.62 99.34 93.42 69.89 83.43 50.13 93.43 21.05 109.72 25.51 123.64 15.38"/>
      <polyline class="cls-1" points="86.21 21.05 95.5 39.88 121.43 50.61"/>
      <polyline class="cls-1" points="77.24 52.24 86.39 71.62 75.28 99.34 83.39 99.34"/>
      <g>
        <path class="cls-2" d="m117.17,91.64l-.66-.02c-1.19-.04-2.26.73-2.6,1.87l-5.34,17.97c-.13,3.51,2.61,6.45,6.12,6.58l2.38.09c3.51.13,6.45-2.61,6.58-6.12l-4.01-18.31c-.26-1.17-1.27-2.01-2.46-2.05Z"/>
        <line class="cls-1" x1="122.4" y1="7.03" x2="115.75" y2="109.9"/>
        <path class="cls-2" d="m124.55,6.5l-4.14-.26c-1-.06-1.76-.93-1.7-1.93s.93-1.76,1.93-1.7l4.15.26c1,.06,1.76.93,1.7,1.93-.06,1-.93,1.76-1.93,1.7Z"/>
      </g>
    </g>
  </g>
</svg>