<?xml version="1.0" encoding="UTF-8"?>
<svg id="Layer_2" data-name="Layer 2" xmlns="http://www.w3.org/2000/svg" width="15.04" height="22.19" viewBox="0 0 15.04 22.19">
  <defs>
    <style>
      .cls-1 {
        fill: #09c5be;
        stroke-width: 0px;
      }
    </style>
  </defs>
  <g id="Layer_1-2" data-name="Layer 1">
    <g>
      <path class="cls-1" d="m15.04,16.15V2.71c0-1.5-1.21-2.71-2.71-2.71H2.71C1.21,0,0,1.21,0,2.71v13.43h15.04ZM7.52,1.69c.45,0,.81.36.81.81s-.36.81-.81.81-.81-.36-.81-.81.36-.81.81-.81Z"/>
      <path class="cls-1" d="m0,17.77v1.71c0,1.5,1.21,2.71,2.71,2.71h9.62c1.5,0,2.71-1.21,2.71-2.71v-1.71H0Zm7.52,2.91c-.45,0-.81-.36-.81-.81s.36-.81.81-.81.81.36.81.81-.36.81-.81.81Z"/>
    </g>
  </g>
</svg>