<?xml version="1.0" encoding="UTF-8"?>
<svg id="Layer_2" data-name="Layer 2" xmlns="http://www.w3.org/2000/svg" width="294.94" height="304.29" xmlns:xlink="http://www.w3.org/1999/xlink" viewBox="0 0 294.94 304.29">
  <defs>
    <style>
      .cls-1 {
        fill: none;
      }

      .cls-1, .cls-2 {
        stroke-width: 0px;
      }

      .cls-2 {
        fill: #0bc5bb;
      }

      .cls-3 {
        clip-path: url(#clippath);
      }
    </style>
    <clipPath id="clippath">
      <circle class="cls-1" cx="106.24" cy="111.13" r="106.24"/>
    </clipPath>
    <symbol id="New_Symbol" data-name="New Symbol" viewBox="0 0 212.48 219.22">
      <g class="cls-3">
        <g>
          <path class="cls-2" d="m.24,1.11c4.46-.1,8.97.09,13.4.92,2.21.4,4.39.95,6.56,1.42,2.17.47,4.34.86,6.54,1.05,4.38.47,8.84.45,13.25.19,4.42-.24,8.7-1.06,12.99-2.28,2.15-.59,4.37-1.16,6.62-1.55,2.25-.38,4.52-.64,6.79-.74,4.53-.22,9.05-.21,13.59.33,2.27.25,4.53.7,6.73,1.22,2.2.52,4.34,1.11,6.48,1.53,4.27.89,8.65,1.15,13.06,1.14,4.41.01,8.79-.26,13.06-1.14,2.14-.43,4.28-1.01,6.48-1.54,2.2-.52,4.46-.97,6.73-1.22,4.54-.53,9.07-.54,13.59-.33,2.26.11,4.54.36,6.78.75,2.25.39,4.46.96,6.61,1.55,4.28,1.22,8.56,2.04,12.99,2.28,4.41.25,8.87.27,13.25-.19,2.2-.2,4.37-.59,6.54-1.06,2.17-.47,4.35-1.02,6.56-1.42,4.43-.83,8.93-1.02,13.4-.92v.15c-4.46,0-8.94.31-13.3,1.23-2.18.45-4.34,1.05-6.51,1.58-2.17.53-4.37.97-6.59,1.23-4.44.55-8.93.58-13.4.39-4.47-.18-8.91-.96-13.22-2.13-4.31-1.17-8.72-1.94-13.18-2.13-4.45-.19-8.93-.16-13.36.38-2.21.25-4.4.7-6.57,1.22-2.17.53-4.32,1.13-6.52,1.58-4.38.93-8.88,1.23-13.35,1.24-4.47,0-8.96-.31-13.35-1.24-2.19-.45-4.35-1.05-6.52-1.58-2.17-.52-4.35-.97-6.57-1.22-4.42-.55-8.91-.58-13.36-.39-4.46.18-8.87.96-13.18,2.12-4.31,1.17-8.75,1.95-13.22,2.13-4.46.19-8.95.16-13.4-.39-2.22-.25-4.42-.7-6.59-1.23-2.17-.53-4.32-1.13-6.51-1.58C9.18,1.57,4.7,1.27.24,1.26v-.15Z"/>
          <path class="cls-2" d="m.24,7.04c4.46-.1,8.97.09,13.4.92,2.21.4,4.39.95,6.56,1.42,2.17.47,4.34.86,6.54,1.05,4.38.47,8.84.45,13.25.19,4.42-.24,8.7-1.06,12.99-2.28,2.15-.59,4.37-1.16,6.62-1.55,2.25-.38,4.52-.64,6.79-.74,4.53-.22,9.05-.21,13.59.33,2.27.25,4.53.7,6.73,1.22,2.2.52,4.34,1.11,6.48,1.53,4.27.89,8.65,1.15,13.06,1.14,4.41.01,8.79-.26,13.06-1.14,2.14-.43,4.28-1.01,6.48-1.54,2.2-.52,4.46-.97,6.73-1.22,4.54-.53,9.07-.54,13.59-.33,2.26.11,4.54.36,6.78.75,2.25.39,4.46.96,6.61,1.55,4.28,1.22,8.56,2.04,12.99,2.28,4.41.25,8.87.27,13.25-.19,2.2-.2,4.37-.59,6.54-1.06,2.17-.47,4.35-1.02,6.56-1.42,4.43-.83,8.93-1.02,13.4-.92v.15c-4.46,0-8.94.31-13.3,1.23-2.18.45-4.34,1.05-6.51,1.58-2.17.53-4.37.97-6.59,1.23-4.44.55-8.93.58-13.4.39-4.47-.18-8.91-.96-13.22-2.13-4.31-1.17-8.72-1.94-13.18-2.13-4.45-.19-8.93-.16-13.36.38-2.21.25-4.4.7-6.57,1.22-2.17.53-4.32,1.13-6.52,1.58-4.38.93-8.88,1.23-13.35,1.24-4.47,0-8.96-.31-13.35-1.24-2.19-.45-4.35-1.05-6.52-1.58-2.17-.52-4.35-.97-6.57-1.22-4.42-.55-8.91-.58-13.36-.39-4.46.18-8.87.96-13.18,2.12-4.31,1.17-8.75,1.95-13.22,2.13-4.46.19-8.95.16-13.4-.39-2.22-.25-4.42-.7-6.59-1.23-2.17-.53-4.32-1.13-6.51-1.58-4.37-.93-8.84-1.23-13.3-1.23v-.15Z"/>
          <path class="cls-2" d="m.24,12.97c4.46-.1,8.97.09,13.4.92,2.21.4,4.39.95,6.56,1.42,2.17.47,4.34.86,6.54,1.05,4.38.47,8.84.45,13.25.19,4.42-.24,8.7-1.06,12.99-2.28,2.15-.59,4.37-1.16,6.62-1.55,2.25-.38,4.52-.64,6.79-.74,4.53-.22,9.05-.21,13.59.33,2.27.25,4.53.7,6.73,1.22,2.2.52,4.34,1.11,6.48,1.53,4.27.89,8.65,1.15,13.06,1.14,4.41.01,8.79-.26,13.06-1.14,2.14-.43,4.28-1.01,6.48-1.54,2.2-.52,4.46-.97,6.73-1.22,4.54-.53,9.07-.54,13.59-.33,2.26.11,4.54.36,6.78.75,2.25.39,4.46.96,6.61,1.55,4.28,1.22,8.56,2.04,12.99,2.28,4.41.25,8.87.27,13.25-.19,2.2-.2,4.37-.59,6.54-1.06,2.17-.47,4.35-1.02,6.56-1.42,4.43-.83,8.93-1.02,13.4-.92v.15c-4.46,0-8.94.31-13.3,1.23-2.18.45-4.34,1.05-6.51,1.58-2.17.53-4.37.97-6.59,1.23-4.44.55-8.93.58-13.4.39-4.47-.18-8.91-.96-13.22-2.13-4.31-1.17-8.72-1.94-13.18-2.13-4.45-.19-8.93-.16-13.36.38-2.21.25-4.4.7-6.57,1.22-2.17.53-4.32,1.13-6.52,1.58-4.38.93-8.88,1.23-13.35,1.24-4.47,0-8.96-.31-13.35-1.24-2.19-.45-4.35-1.05-6.52-1.58-2.17-.52-4.35-.97-6.57-1.22-4.42-.55-8.91-.58-13.36-.39-4.46.18-8.87.96-13.18,2.12-4.31,1.17-8.75,1.95-13.22,2.13-4.46.19-8.95.16-13.4-.39-2.22-.25-4.42-.7-6.59-1.23-2.17-.53-4.32-1.13-6.51-1.58-4.37-.93-8.84-1.23-13.3-1.23v-.15Z"/>
          <path class="cls-2" d="m.24,18.89c4.46-.1,8.97.09,13.4.92,2.21.4,4.39.95,6.56,1.42,2.17.47,4.34.86,6.54,1.05,4.38.47,8.84.45,13.25.19,4.42-.24,8.7-1.06,12.99-2.28,2.15-.59,4.37-1.16,6.62-1.55,2.25-.38,4.52-.64,6.79-.74,4.53-.22,9.05-.21,13.59.33,2.27.25,4.53.7,6.73,1.22,2.2.52,4.34,1.11,6.48,1.53,4.27.89,8.65,1.15,13.06,1.14,4.41.01,8.79-.26,13.06-1.14,2.14-.43,4.28-1.01,6.48-1.54,2.2-.52,4.46-.97,6.73-1.22,4.54-.53,9.07-.54,13.59-.33,2.26.11,4.54.36,6.78.75,2.25.39,4.46.96,6.61,1.55,4.28,1.22,8.56,2.04,12.99,2.28,4.41.25,8.87.27,13.25-.19,2.2-.2,4.37-.59,6.54-1.06,2.17-.47,4.35-1.02,6.56-1.42,4.43-.83,8.93-1.02,13.4-.92v.15c-4.46,0-8.94.31-13.3,1.23-2.18.45-4.34,1.05-6.51,1.58-2.17.53-4.37.97-6.59,1.23-4.44.55-8.93.58-13.4.39-4.47-.18-8.91-.96-13.22-2.13-4.31-1.17-8.72-1.94-13.18-2.13-4.45-.19-8.93-.16-13.36.38-2.21.25-4.4.7-6.57,1.22-2.17.53-4.32,1.13-6.52,1.58-4.38.93-8.88,1.23-13.35,1.24-4.47,0-8.96-.31-13.35-1.24-2.19-.45-4.35-1.05-6.52-1.58-2.17-.52-4.35-.97-6.57-1.22-4.42-.55-8.91-.58-13.36-.39-4.46.18-8.87.96-13.18,2.12-4.31,1.17-8.75,1.95-13.22,2.13-4.46.19-8.95.16-13.4-.39-2.22-.25-4.42-.7-6.59-1.23-2.17-.53-4.32-1.13-6.51-1.58-4.37-.93-8.84-1.23-13.3-1.23v-.15Z"/>
          <path class="cls-2" d="m.24,24.82c4.46-.1,8.97.09,13.4.92,2.21.4,4.39.95,6.56,1.42,2.17.47,4.34.86,6.54,1.05,4.38.47,8.84.45,13.25.19,4.42-.24,8.7-1.06,12.99-2.28,2.15-.59,4.37-1.16,6.62-1.55,2.25-.38,4.52-.64,6.79-.74,4.53-.22,9.05-.21,13.59.33,2.27.25,4.53.7,6.73,1.22,2.2.52,4.34,1.11,6.48,1.53,4.27.89,8.65,1.15,13.06,1.14,4.41.01,8.79-.26,13.06-1.14,2.14-.43,4.28-1.01,6.48-1.54,2.2-.52,4.46-.97,6.73-1.22,4.54-.53,9.07-.54,13.59-.33,2.26.11,4.54.36,6.78.75,2.25.39,4.46.96,6.61,1.55,4.28,1.22,8.56,2.04,12.99,2.28,4.41.25,8.87.27,13.25-.19,2.2-.2,4.37-.59,6.54-1.06,2.17-.47,4.35-1.02,6.56-1.42,4.43-.83,8.93-1.02,13.4-.92v.15c-4.46,0-8.94.31-13.3,1.23-2.18.45-4.34,1.05-6.51,1.58-2.17.53-4.37.97-6.59,1.23-4.44.55-8.93.58-13.4.39-4.47-.18-8.91-.96-13.22-2.13-4.31-1.17-8.72-1.94-13.18-2.13-4.45-.19-8.93-.16-13.36.38-2.21.25-4.4.7-6.57,1.22-2.17.53-4.32,1.13-6.52,1.58-4.38.93-8.88,1.23-13.35,1.24-4.47,0-8.96-.31-13.35-1.24-2.19-.45-4.35-1.05-6.52-1.58-2.17-.52-4.35-.97-6.57-1.22-4.42-.55-8.91-.58-13.36-.39-4.46.18-8.87.96-13.18,2.12-4.31,1.17-8.75,1.95-13.22,2.13-4.46.19-8.95.16-13.4-.39-2.22-.25-4.42-.7-6.59-1.23-2.17-.53-4.32-1.13-6.51-1.58-4.37-.93-8.84-1.23-13.3-1.23v-.15Z"/>
          <path class="cls-2" d="m.24,30.75c4.46-.1,8.97.09,13.4.92,2.21.4,4.39.95,6.56,1.42,2.17.47,4.34.86,6.54,1.05,4.38.47,8.84.45,13.25.19,4.42-.24,8.7-1.06,12.99-2.28,2.15-.59,4.37-1.16,6.62-1.55,2.25-.38,4.52-.64,6.79-.74,4.53-.22,9.05-.21,13.59.33,2.27.25,4.53.7,6.73,1.22,2.2.52,4.34,1.11,6.48,1.53,4.27.89,8.65,1.15,13.06,1.14,4.41.01,8.79-.26,13.06-1.14,2.14-.43,4.28-1.01,6.48-1.54,2.2-.52,4.46-.97,6.73-1.22,4.54-.53,9.07-.54,13.59-.33,2.26.11,4.54.36,6.78.75,2.25.39,4.46.96,6.61,1.55,4.28,1.22,8.56,2.04,12.99,2.28,4.41.25,8.87.27,13.25-.19,2.2-.2,4.37-.59,6.54-1.06,2.17-.47,4.35-1.02,6.56-1.42,4.43-.83,8.93-1.02,13.4-.92v.15c-4.46,0-8.94.31-13.3,1.23-2.18.45-4.34,1.05-6.51,1.58-2.17.53-4.37.97-6.59,1.23-4.44.55-8.93.58-13.4.39-4.47-.18-8.91-.96-13.22-2.13-4.31-1.17-8.72-1.94-13.18-2.13-4.45-.19-8.93-.16-13.36.38-2.21.25-4.4.7-6.57,1.22-2.17.53-4.32,1.13-6.52,1.58-4.38.93-8.88,1.23-13.35,1.24-4.47,0-8.96-.31-13.35-1.24-2.19-.45-4.35-1.05-6.52-1.58-2.17-.52-4.35-.97-6.57-1.22-4.42-.55-8.91-.58-13.36-.39-4.46.18-8.87.96-13.18,2.12-4.31,1.17-8.75,1.95-13.22,2.13-4.46.19-8.95.16-13.4-.39-2.22-.25-4.42-.7-6.59-1.23-2.17-.53-4.32-1.13-6.51-1.58-4.37-.93-8.84-1.23-13.3-1.23v-.15Z"/>
          <path class="cls-2" d="m.24,36.67c4.46-.1,8.97.09,13.4.92,2.21.4,4.39.95,6.56,1.42,2.17.47,4.34.86,6.54,1.05,4.38.47,8.84.45,13.25.19,4.42-.24,8.7-1.06,12.99-2.28,2.15-.59,4.37-1.16,6.62-1.55,2.25-.38,4.52-.64,6.79-.74,4.53-.22,9.05-.21,13.59.33,2.27.25,4.53.7,6.73,1.22,2.2.52,4.34,1.11,6.48,1.53,4.27.89,8.65,1.15,13.06,1.14,4.41.01,8.79-.26,13.06-1.14,2.14-.43,4.28-1.01,6.48-1.54,2.2-.52,4.46-.97,6.73-1.22,4.54-.53,9.07-.54,13.59-.33,2.26.11,4.54.36,6.78.75,2.25.39,4.46.96,6.61,1.55,4.28,1.22,8.56,2.04,12.99,2.28,4.41.25,8.87.27,13.25-.19,2.2-.2,4.37-.59,6.54-1.06,2.17-.47,4.35-1.02,6.56-1.42,4.43-.83,8.93-1.02,13.4-.92v.15c-4.46,0-8.94.31-13.3,1.23-2.18.45-4.34,1.05-6.51,1.58-2.17.53-4.37.97-6.59,1.23-4.44.55-8.93.58-13.4.39-4.47-.18-8.91-.96-13.22-2.13-4.31-1.17-8.72-1.94-13.18-2.13-4.45-.19-8.93-.16-13.36.38-2.21.25-4.4.7-6.57,1.22-2.17.53-4.32,1.13-6.52,1.58-4.38.93-8.88,1.23-13.35,1.24-4.47,0-8.96-.31-13.35-1.24-2.19-.45-4.35-1.05-6.52-1.58-2.17-.52-4.35-.97-6.57-1.22-4.42-.55-8.91-.58-13.36-.39-4.46.18-8.87.96-13.18,2.12-4.31,1.17-8.75,1.95-13.22,2.13-4.46.19-8.95.16-13.4-.39-2.22-.25-4.42-.7-6.59-1.23-2.17-.53-4.32-1.13-6.51-1.58-4.37-.93-8.84-1.23-13.3-1.23v-.15Z"/>
          <path class="cls-2" d="m.24,42.6c4.46-.1,8.97.09,13.4.92,2.21.4,4.39.95,6.56,1.42,2.17.47,4.34.86,6.54,1.05,4.38.47,8.84.45,13.25.19,4.42-.24,8.7-1.06,12.99-2.28,2.15-.59,4.37-1.16,6.62-1.55,2.25-.38,4.52-.64,6.79-.74,4.53-.22,9.05-.21,13.59.33,2.27.25,4.53.7,6.73,1.22,2.2.52,4.34,1.11,6.48,1.53,4.27.89,8.65,1.15,13.06,1.14,4.41.01,8.79-.26,13.06-1.14,2.14-.43,4.28-1.01,6.48-1.54,2.2-.52,4.46-.97,6.73-1.22,4.54-.53,9.07-.54,13.59-.33,2.26.11,4.54.36,6.78.75,2.25.39,4.46.96,6.61,1.55,4.28,1.22,8.56,2.04,12.99,2.28,4.41.25,8.87.27,13.25-.19,2.2-.2,4.37-.59,6.54-1.06,2.17-.47,4.35-1.02,6.56-1.42,4.43-.83,8.93-1.02,13.4-.92v.15c-4.46,0-8.94.31-13.3,1.23-2.18.45-4.34,1.05-6.51,1.58-2.17.53-4.37.97-6.59,1.23-4.44.55-8.93.58-13.4.39-4.47-.18-8.91-.96-13.22-2.13-4.31-1.17-8.72-1.94-13.18-2.13-4.45-.19-8.93-.16-13.36.38-2.21.25-4.4.7-6.57,1.22-2.17.53-4.32,1.13-6.52,1.58-4.38.93-8.88,1.23-13.35,1.24-4.47,0-8.96-.31-13.35-1.24-2.19-.45-4.35-1.05-6.52-1.58-2.17-.52-4.35-.97-6.57-1.22-4.42-.55-8.91-.58-13.36-.39-4.46.18-8.87.96-13.18,2.12-4.31,1.17-8.75,1.95-13.22,2.13-4.46.19-8.95.16-13.4-.39-2.22-.25-4.42-.7-6.59-1.23-2.17-.53-4.32-1.13-6.51-1.58-4.37-.93-8.84-1.23-13.3-1.23v-.15Z"/>
          <path class="cls-2" d="m.24,48.53c4.46-.1,8.97.09,13.4.92,2.21.4,4.39.95,6.56,1.42,2.17.47,4.34.86,6.54,1.05,4.38.47,8.84.45,13.25.19,4.42-.24,8.7-1.06,12.99-2.28,2.15-.59,4.37-1.16,6.62-1.55,2.25-.38,4.52-.64,6.79-.74,4.53-.22,9.05-.21,13.59.33,2.27.25,4.53.7,6.73,1.22,2.2.52,4.34,1.11,6.48,1.53,4.27.89,8.65,1.15,13.06,1.14,4.41.01,8.79-.26,13.06-1.14,2.14-.43,4.28-1.01,6.48-1.54,2.2-.52,4.46-.97,6.73-1.22,4.54-.53,9.07-.54,13.59-.33,2.26.11,4.54.36,6.78.75,2.25.39,4.46.96,6.61,1.55,4.28,1.22,8.56,2.04,12.99,2.28,4.41.25,8.87.27,13.25-.19,2.2-.2,4.37-.59,6.54-1.06,2.17-.47,4.35-1.02,6.56-1.42,4.43-.83,8.93-1.02,13.4-.92v.15c-4.46,0-8.94.31-13.3,1.23-2.18.45-4.34,1.05-6.51,1.58-2.17.53-4.37.97-6.59,1.23-4.44.55-8.93.58-13.4.39-4.47-.18-8.91-.96-13.22-2.13-4.31-1.17-8.72-1.94-13.18-2.13-4.45-.19-8.93-.16-13.36.38-2.21.25-4.4.7-6.57,1.22-2.17.53-4.32,1.13-6.52,1.58-4.38.93-8.88,1.23-13.35,1.24-4.47,0-8.96-.31-13.35-1.24-2.19-.45-4.35-1.05-6.52-1.58-2.17-.52-4.35-.97-6.57-1.22-4.42-.55-8.91-.58-13.36-.39-4.46.18-8.87.96-13.18,2.12-4.31,1.17-8.75,1.95-13.22,2.13-4.46.19-8.95.16-13.4-.39-2.22-.25-4.42-.7-6.59-1.23-2.17-.53-4.32-1.13-6.51-1.58-4.37-.93-8.84-1.23-13.3-1.23v-.15Z"/>
          <path class="cls-2" d="m.24,54.45c4.46-.1,8.97.09,13.4.92,2.21.4,4.39.95,6.56,1.42,2.17.47,4.34.86,6.54,1.05,4.38.47,8.84.45,13.25.19,4.42-.24,8.7-1.06,12.99-2.28,2.15-.59,4.37-1.16,6.62-1.55,2.25-.38,4.52-.64,6.79-.74,4.53-.22,9.05-.21,13.59.33,2.27.25,4.53.7,6.73,1.22,2.2.52,4.34,1.11,6.48,1.53,4.27.89,8.65,1.15,13.06,1.14,4.41.01,8.79-.26,13.06-1.14,2.14-.43,4.28-1.01,6.48-1.54,2.2-.52,4.46-.97,6.73-1.22,4.54-.53,9.07-.54,13.59-.33,2.26.11,4.54.36,6.78.75,2.25.39,4.46.96,6.61,1.55,4.28,1.22,8.56,2.04,12.99,2.28,4.41.25,8.87.27,13.25-.19,2.2-.2,4.37-.59,6.54-1.06,2.17-.47,4.35-1.02,6.56-1.42,4.43-.83,8.93-1.02,13.4-.92v.15c-4.46,0-8.94.31-13.3,1.23-2.18.45-4.34,1.05-6.51,1.58-2.17.53-4.37.97-6.59,1.23-4.44.55-8.93.58-13.4.39-4.47-.18-8.91-.96-13.22-2.13-4.31-1.17-8.72-1.94-13.18-2.13-4.45-.19-8.93-.16-13.36.38-2.21.25-4.4.7-6.57,1.22-2.17.53-4.32,1.13-6.52,1.58-4.38.93-8.88,1.23-13.35,1.24-4.47,0-8.96-.31-13.35-1.24-2.19-.45-4.35-1.05-6.52-1.58-2.17-.52-4.35-.97-6.57-1.22-4.42-.55-8.91-.58-13.36-.39-4.46.18-8.87.96-13.18,2.12-4.31,1.17-8.75,1.95-13.22,2.13-4.46.19-8.95.16-13.4-.39-2.22-.25-4.42-.7-6.59-1.23-2.17-.53-4.32-1.13-6.51-1.58-4.37-.93-8.84-1.23-13.3-1.23v-.15Z"/>
          <path class="cls-2" d="m.24,60.38c4.46-.1,8.97.09,13.4.92,2.21.4,4.39.95,6.56,1.42,2.17.47,4.34.86,6.54,1.05,4.38.47,8.84.45,13.25.19,4.42-.24,8.7-1.06,12.99-2.28,2.15-.59,4.37-1.16,6.62-1.55,2.25-.38,4.52-.64,6.79-.74,4.53-.22,9.05-.21,13.59.33,2.27.25,4.53.7,6.73,1.22,2.2.52,4.34,1.11,6.48,1.53,4.27.89,8.65,1.15,13.06,1.14,4.41.01,8.79-.26,13.06-1.14,2.14-.43,4.28-1.01,6.48-1.54,2.2-.52,4.46-.97,6.73-1.22,4.54-.53,9.07-.54,13.59-.33,2.26.11,4.54.36,6.78.75,2.25.39,4.46.96,6.61,1.55,4.28,1.22,8.56,2.04,12.99,2.28,4.41.25,8.87.27,13.25-.19,2.2-.2,4.37-.59,6.54-1.06,2.17-.47,4.35-1.02,6.56-1.42,4.43-.83,8.93-1.02,13.4-.92v.15c-4.46,0-8.94.31-13.3,1.23-2.18.45-4.34,1.05-6.51,1.58-2.17.53-4.37.97-6.59,1.23-4.44.55-8.93.58-13.4.39-4.47-.18-8.91-.96-13.22-2.13-4.31-1.17-8.72-1.94-13.18-2.13-4.45-.19-8.93-.16-13.36.38-2.21.25-4.4.7-6.57,1.22-2.17.53-4.32,1.13-6.52,1.58-4.38.93-8.88,1.23-13.35,1.24-4.47,0-8.96-.31-13.35-1.24-2.19-.45-4.35-1.05-6.52-1.58-2.17-.52-4.35-.97-6.57-1.22-4.42-.55-8.91-.58-13.36-.39-4.46.18-8.87.96-13.18,2.12-4.31,1.17-8.75,1.95-13.22,2.13-4.46.19-8.95.16-13.4-.39-2.22-.25-4.42-.7-6.59-1.23-2.17-.53-4.32-1.13-6.51-1.58-4.37-.93-8.84-1.23-13.3-1.23v-.15Z"/>
          <path class="cls-2" d="m.24,66.31c4.46-.1,8.97.09,13.4.92,2.21.4,4.39.95,6.56,1.42,2.17.47,4.34.86,6.54,1.05,4.38.47,8.84.45,13.25.19,4.42-.24,8.7-1.06,12.99-2.28,2.15-.59,4.37-1.16,6.62-1.55,2.25-.38,4.52-.64,6.79-.74,4.53-.22,9.05-.21,13.59.33,2.27.25,4.53.7,6.73,1.22,2.2.52,4.34,1.11,6.48,1.53,4.27.89,8.65,1.15,13.06,1.14,4.41.01,8.79-.26,13.06-1.14,2.14-.43,4.28-1.01,6.48-1.54,2.2-.52,4.46-.97,6.73-1.22,4.54-.53,9.07-.54,13.59-.33,2.26.11,4.54.36,6.78.75,2.25.39,4.46.96,6.61,1.55,4.28,1.22,8.56,2.04,12.99,2.28,4.41.25,8.87.27,13.25-.19,2.2-.2,4.37-.59,6.54-1.06,2.17-.47,4.35-1.02,6.56-1.42,4.43-.83,8.93-1.02,13.4-.92v.15c-4.46,0-8.94.31-13.3,1.23-2.18.45-4.34,1.05-6.51,1.58-2.17.53-4.37.97-6.59,1.23-4.44.55-8.93.58-13.4.39-4.47-.18-8.91-.96-13.22-2.13-4.31-1.17-8.72-1.94-13.18-2.13-4.45-.19-8.93-.16-13.36.38-2.21.25-4.4.7-6.57,1.22-2.17.53-4.32,1.13-6.52,1.58-4.38.93-8.88,1.23-13.35,1.24-4.47,0-8.96-.31-13.35-1.24-2.19-.45-4.35-1.05-6.52-1.58-2.17-.52-4.35-.97-6.57-1.22-4.42-.55-8.91-.58-13.36-.39-4.46.18-8.87.96-13.18,2.12-4.31,1.17-8.75,1.95-13.22,2.13-4.46.19-8.95.16-13.4-.39-2.22-.25-4.42-.7-6.59-1.23-2.17-.53-4.32-1.13-6.51-1.58-4.37-.93-8.84-1.23-13.3-1.23v-.15Z"/>
          <path class="cls-2" d="m.24,72.23c4.46-.1,8.97.09,13.4.92,2.21.4,4.39.95,6.56,1.42,2.17.47,4.34.86,6.54,1.05,4.38.47,8.84.45,13.25.19,4.42-.24,8.7-1.06,12.99-2.28,2.15-.59,4.37-1.16,6.62-1.55,2.25-.38,4.52-.64,6.79-.74,4.53-.22,9.05-.21,13.59.33,2.27.25,4.53.7,6.73,1.22,2.2.52,4.34,1.11,6.48,1.53,4.27.89,8.65,1.15,13.06,1.14,4.41.01,8.79-.26,13.06-1.14,2.14-.43,4.28-1.01,6.48-1.54,2.2-.52,4.46-.97,6.73-1.22,4.54-.53,9.07-.54,13.59-.33,2.26.11,4.54.36,6.78.75,2.25.39,4.46.96,6.61,1.55,4.28,1.22,8.56,2.04,12.99,2.28,4.41.25,8.87.27,13.25-.19,2.2-.2,4.37-.59,6.54-1.06,2.17-.47,4.35-1.02,6.56-1.42,4.43-.83,8.93-1.02,13.4-.92v.15c-4.46,0-8.94.31-13.3,1.23-2.18.45-4.34,1.05-6.51,1.58-2.17.53-4.37.97-6.59,1.23-4.44.55-8.93.58-13.4.39-4.47-.18-8.91-.96-13.22-2.13-4.31-1.17-8.72-1.94-13.18-2.13-4.45-.19-8.93-.16-13.36.38-2.21.25-4.4.7-6.57,1.22-2.17.53-4.32,1.13-6.52,1.58-4.38.93-8.88,1.23-13.35,1.24-4.47,0-8.96-.31-13.35-1.24-2.19-.45-4.35-1.05-6.52-1.58-2.17-.52-4.35-.97-6.57-1.22-4.42-.55-8.91-.58-13.36-.39-4.46.18-8.87.96-13.18,2.12-4.31,1.17-8.75,1.95-13.22,2.13-4.46.19-8.95.16-13.4-.39-2.22-.25-4.42-.7-6.59-1.23-2.17-.53-4.32-1.13-6.51-1.58-4.37-.93-8.84-1.23-13.3-1.23v-.15Z"/>
          <path class="cls-2" d="m.24,78.16c4.46-.1,8.97.09,13.4.92,2.21.4,4.39.95,6.56,1.42,2.17.47,4.34.86,6.54,1.05,4.38.47,8.84.45,13.25.19,4.42-.24,8.7-1.06,12.99-2.28,2.15-.59,4.37-1.16,6.62-1.55,2.25-.38,4.52-.64,6.79-.74,4.53-.22,9.05-.21,13.59.33,2.27.25,4.53.7,6.73,1.22,2.2.52,4.34,1.11,6.48,1.53,4.27.89,8.65,1.15,13.06,1.14,4.41.01,8.79-.26,13.06-1.14,2.14-.43,4.28-1.01,6.48-1.54,2.2-.52,4.46-.97,6.73-1.22,4.54-.53,9.07-.54,13.59-.33,2.26.11,4.54.36,6.78.75,2.25.39,4.46.96,6.61,1.55,4.28,1.22,8.56,2.04,12.99,2.28,4.41.25,8.87.27,13.25-.19,2.2-.2,4.37-.59,6.54-1.06,2.17-.47,4.35-1.02,6.56-1.42,4.43-.83,8.93-1.02,13.4-.92v.15c-4.46,0-8.94.31-13.3,1.23-2.18.45-4.34,1.05-6.51,1.58-2.17.53-4.37.97-6.59,1.23-4.44.55-8.93.58-13.4.39-4.47-.18-8.91-.96-13.22-2.13-4.31-1.17-8.72-1.94-13.18-2.13-4.45-.19-8.93-.16-13.36.38-2.21.25-4.4.7-6.57,1.22-2.17.53-4.32,1.13-6.52,1.58-4.38.93-8.88,1.23-13.35,1.24-4.47,0-8.96-.31-13.35-1.24-2.19-.45-4.35-1.05-6.52-1.58-2.17-.52-4.35-.97-6.57-1.22-4.42-.55-8.91-.58-13.36-.39-4.46.18-8.87.96-13.18,2.12-4.31,1.17-8.75,1.95-13.22,2.13-4.46.19-8.95.16-13.4-.39-2.22-.25-4.42-.7-6.59-1.23-2.17-.53-4.32-1.13-6.51-1.58-4.37-.93-8.84-1.23-13.3-1.23v-.15Z"/>
          <path class="cls-2" d="m.24,84.09c4.46-.1,8.97.09,13.4.92,2.21.4,4.39.95,6.56,1.42,2.17.47,4.34.86,6.54,1.05,4.38.47,8.84.45,13.25.19,4.42-.24,8.7-1.06,12.99-2.28,2.15-.59,4.37-1.16,6.62-1.55,2.25-.38,4.52-.64,6.79-.74,4.53-.22,9.05-.21,13.59.33,2.27.25,4.53.7,6.73,1.22,2.2.52,4.34,1.11,6.48,1.53,4.27.89,8.65,1.15,13.06,1.14,4.41.01,8.79-.26,13.06-1.14,2.14-.43,4.28-1.01,6.48-1.54,2.2-.52,4.46-.97,6.73-1.22,4.54-.53,9.07-.54,13.59-.33,2.26.11,4.54.36,6.78.75,2.25.39,4.46.96,6.61,1.55,4.28,1.22,8.56,2.04,12.99,2.28,4.41.25,8.87.27,13.25-.19,2.2-.2,4.37-.59,6.54-1.06,2.17-.47,4.35-1.02,6.56-1.42,4.43-.83,8.93-1.02,13.4-.92v.15c-4.46,0-8.94.31-13.3,1.23-2.18.45-4.34,1.05-6.51,1.58-2.17.53-4.37.97-6.59,1.23-4.44.55-8.93.58-13.4.39-4.47-.18-8.91-.96-13.22-2.13-4.31-1.17-8.72-1.94-13.18-2.13-4.45-.19-8.93-.16-13.36.38-2.21.25-4.4.7-6.57,1.22-2.17.53-4.32,1.13-6.52,1.58-4.38.93-8.88,1.23-13.35,1.24-4.47,0-8.96-.31-13.35-1.24-2.19-.45-4.35-1.05-6.52-1.58-2.17-.52-4.35-.97-6.57-1.22-4.42-.55-8.91-.58-13.36-.39-4.46.18-8.87.96-13.18,2.12-4.31,1.17-8.75,1.95-13.22,2.13-4.46.19-8.95.16-13.4-.39-2.22-.25-4.42-.7-6.59-1.23-2.17-.53-4.32-1.13-6.51-1.58-4.37-.93-8.84-1.23-13.3-1.23v-.15Z"/>
          <path class="cls-2" d="m.24,90.01c4.46-.1,8.97.09,13.4.92,2.21.4,4.39.95,6.56,1.42,2.17.47,4.34.86,6.54,1.05,4.38.47,8.84.45,13.25.19,4.42-.24,8.7-1.06,12.99-2.28,2.15-.59,4.37-1.16,6.62-1.55,2.25-.38,4.52-.64,6.79-.74,4.53-.22,9.05-.21,13.59.33,2.27.25,4.53.7,6.73,1.22,2.2.52,4.34,1.11,6.48,1.53,4.27.89,8.65,1.15,13.06,1.14,4.41.01,8.79-.26,13.06-1.14,2.14-.43,4.28-1.01,6.48-1.54,2.2-.52,4.46-.97,6.73-1.22,4.54-.53,9.07-.54,13.59-.33,2.26.11,4.54.36,6.78.75,2.25.39,4.46.96,6.61,1.55,4.28,1.22,8.56,2.04,12.99,2.28,4.41.25,8.87.27,13.25-.19,2.2-.2,4.37-.59,6.54-1.06,2.17-.47,4.35-1.02,6.56-1.42,4.43-.83,8.93-1.02,13.4-.92v.15c-4.46,0-8.94.31-13.3,1.23-2.18.45-4.34,1.05-6.51,1.58-2.17.53-4.37.97-6.59,1.23-4.44.55-8.93.58-13.4.39-4.47-.18-8.91-.96-13.22-2.13-4.31-1.17-8.72-1.94-13.18-2.13-4.45-.19-8.93-.16-13.36.38-2.21.25-4.4.7-6.57,1.22-2.17.53-4.32,1.13-6.52,1.58-4.38.93-8.88,1.23-13.35,1.24-4.47,0-8.96-.31-13.35-1.24-2.19-.45-4.35-1.05-6.52-1.58-2.17-.52-4.35-.97-6.57-1.22-4.42-.55-8.91-.58-13.36-.39-4.46.18-8.87.96-13.18,2.12-4.31,1.17-8.75,1.95-13.22,2.13-4.46.19-8.95.16-13.4-.39-2.22-.25-4.42-.7-6.59-1.23-2.17-.53-4.32-1.13-6.51-1.58-4.37-.93-8.84-1.23-13.3-1.23v-.15Z"/>
          <path class="cls-2" d="m.24,95.94c4.46-.1,8.97.09,13.4.92,2.21.4,4.39.95,6.56,1.42,2.17.47,4.34.86,6.54,1.05,4.38.47,8.84.45,13.25.19,4.42-.24,8.7-1.06,12.99-2.28,2.15-.59,4.37-1.16,6.62-1.55,2.25-.38,4.52-.64,6.79-.74,4.53-.22,9.05-.21,13.59.33,2.27.25,4.53.7,6.73,1.22,2.2.52,4.34,1.11,6.48,1.53,4.27.89,8.65,1.15,13.06,1.14,4.41.01,8.79-.26,13.06-1.14,2.14-.43,4.28-1.01,6.48-1.54,2.2-.52,4.46-.97,6.73-1.22,4.54-.53,9.07-.54,13.59-.33,2.26.11,4.54.36,6.78.75,2.25.39,4.46.96,6.61,1.55,4.28,1.22,8.56,2.04,12.99,2.28,4.41.25,8.87.27,13.25-.19,2.2-.2,4.37-.59,6.54-1.06,2.17-.47,4.35-1.02,6.56-1.42,4.43-.83,8.93-1.02,13.4-.92v.15c-4.46,0-8.94.31-13.3,1.23-2.18.45-4.34,1.05-6.51,1.58-2.17.53-4.37.97-6.59,1.23-4.44.55-8.93.58-13.4.39-4.47-.18-8.91-.96-13.22-2.13-4.31-1.17-8.72-1.94-13.18-2.13-4.45-.19-8.93-.16-13.36.38-2.21.25-4.4.7-6.57,1.22-2.17.53-4.32,1.13-6.52,1.58-4.38.93-8.88,1.23-13.35,1.24-4.47,0-8.96-.31-13.35-1.24-2.19-.45-4.35-1.05-6.52-1.58-2.17-.52-4.35-.97-6.57-1.22-4.42-.55-8.91-.58-13.36-.39-4.46.18-8.87.96-13.18,2.12-4.31,1.17-8.75,1.95-13.22,2.13-4.46.19-8.95.16-13.4-.39-2.22-.25-4.42-.7-6.59-1.23-2.17-.53-4.32-1.13-6.51-1.58-4.37-.93-8.84-1.23-13.3-1.23v-.15Z"/>
          <path class="cls-2" d="m.24,101.87c4.46-.1,8.97.09,13.4.92,2.21.4,4.39.95,6.56,1.42,2.17.47,4.34.86,6.54,1.05,4.38.47,8.84.45,13.25.19,4.42-.24,8.7-1.06,12.99-2.28,2.15-.59,4.37-1.16,6.62-1.55,2.25-.38,4.52-.64,6.79-.74,4.53-.22,9.05-.21,13.59.33,2.27.25,4.53.7,6.73,1.22,2.2.52,4.34,1.11,6.48,1.53,4.27.89,8.65,1.15,13.06,1.14,4.41.01,8.79-.26,13.06-1.14,2.14-.43,4.28-1.01,6.48-1.54,2.2-.52,4.46-.97,6.73-1.22,4.54-.53,9.07-.54,13.59-.33,2.26.11,4.54.36,6.78.75,2.25.39,4.46.96,6.61,1.55,4.28,1.22,8.56,2.04,12.99,2.28,4.41.25,8.87.27,13.25-.19,2.2-.2,4.37-.59,6.54-1.06,2.17-.47,4.35-1.02,6.56-1.42,4.43-.83,8.93-1.02,13.4-.92v.15c-4.46,0-8.94.31-13.3,1.23-2.18.45-4.34,1.05-6.51,1.58-2.17.53-4.37.97-6.59,1.23-4.44.55-8.93.58-13.4.39-4.47-.18-8.91-.96-13.22-2.13-4.31-1.17-8.72-1.94-13.18-2.13-4.45-.19-8.93-.16-13.36.38-2.21.25-4.4.7-6.57,1.22-2.17.53-4.32,1.13-6.52,1.58-4.38.93-8.88,1.23-13.35,1.24-4.47,0-8.96-.31-13.35-1.24-2.19-.45-4.35-1.05-6.52-1.58-2.17-.52-4.35-.97-6.57-1.22-4.42-.55-8.91-.58-13.36-.39-4.46.18-8.87.96-13.18,2.12-4.31,1.17-8.75,1.95-13.22,2.13-4.46.19-8.95.16-13.4-.39-2.22-.25-4.42-.7-6.59-1.23-2.17-.53-4.32-1.13-6.51-1.58-4.37-.93-8.84-1.23-13.3-1.23v-.15Z"/>
          <path class="cls-2" d="m.24,107.79c4.46-.1,8.97.09,13.4.92,2.21.4,4.39.95,6.56,1.42,2.17.47,4.34.86,6.54,1.05,4.38.47,8.84.45,13.25.19,4.42-.24,8.7-1.06,12.99-2.28,2.15-.59,4.37-1.16,6.62-1.55,2.25-.38,4.52-.64,6.79-.74,4.53-.22,9.05-.21,13.59.33,2.27.25,4.53.7,6.73,1.22,2.2.52,4.34,1.11,6.48,1.53,4.27.89,8.65,1.15,13.06,1.14,4.41.01,8.79-.26,13.06-1.14,2.14-.43,4.28-1.01,6.48-1.54,2.2-.52,4.46-.97,6.73-1.22,4.54-.53,9.07-.54,13.59-.33,2.26.11,4.54.36,6.78.75,2.25.39,4.46.96,6.61,1.55,4.28,1.22,8.56,2.04,12.99,2.28,4.41.25,8.87.27,13.25-.19,2.2-.2,4.37-.59,6.54-1.06,2.17-.47,4.35-1.02,6.56-1.42,4.43-.83,8.93-1.02,13.4-.92v.15c-4.46,0-8.94.31-13.3,1.23-2.18.45-4.34,1.05-6.51,1.58-2.17.53-4.37.97-6.59,1.23-4.44.55-8.93.58-13.4.39-4.47-.18-8.91-.96-13.22-2.13-4.31-1.17-8.72-1.94-13.18-2.13-4.45-.19-8.93-.16-13.36.38-2.21.25-4.4.7-6.57,1.22-2.17.53-4.32,1.13-6.52,1.58-4.38.93-8.88,1.23-13.35,1.24-4.47,0-8.96-.31-13.35-1.24-2.19-.45-4.35-1.05-6.52-1.58-2.17-.52-4.35-.97-6.57-1.22-4.42-.55-8.91-.58-13.36-.39-4.46.18-8.87.96-13.18,2.12-4.31,1.17-8.75,1.95-13.22,2.13-4.46.19-8.95.16-13.4-.39-2.22-.25-4.42-.7-6.59-1.23-2.17-.53-4.32-1.13-6.51-1.58-4.37-.93-8.84-1.23-13.3-1.23v-.15Z"/>
          <path class="cls-2" d="m.24,113.72c4.46-.1,8.97.09,13.4.92,2.21.4,4.39.95,6.56,1.42,2.17.47,4.34.86,6.54,1.05,4.38.47,8.84.45,13.25.19,4.42-.24,8.7-1.06,12.99-2.28,2.15-.59,4.37-1.16,6.62-1.55,2.25-.38,4.52-.64,6.79-.74,4.53-.22,9.05-.21,13.59.33,2.27.25,4.53.7,6.73,1.22,2.2.52,4.34,1.11,6.48,1.53,4.27.89,8.65,1.15,13.06,1.14,4.41.01,8.79-.26,13.06-1.14,2.14-.43,4.28-1.01,6.48-1.54,2.2-.52,4.46-.97,6.73-1.22,4.54-.53,9.07-.54,13.59-.33,2.26.11,4.54.36,6.78.75,2.25.39,4.46.96,6.61,1.55,4.28,1.22,8.56,2.04,12.99,2.28,4.41.25,8.87.27,13.25-.19,2.2-.2,4.37-.59,6.54-1.06,2.17-.47,4.35-1.02,6.56-1.42,4.43-.83,8.93-1.02,13.4-.92v.15c-4.46,0-8.94.31-13.3,1.23-2.18.45-4.34,1.05-6.51,1.58-2.17.53-4.37.97-6.59,1.23-4.44.55-8.93.58-13.4.39-4.47-.18-8.91-.96-13.22-2.13-4.31-1.17-8.72-1.94-13.18-2.13-4.45-.19-8.93-.16-13.36.38-2.21.25-4.4.7-6.57,1.22-2.17.53-4.32,1.13-6.52,1.58-4.38.93-8.88,1.23-13.35,1.24-4.47,0-8.96-.31-13.35-1.24-2.19-.45-4.35-1.05-6.52-1.58-2.17-.52-4.35-.97-6.57-1.22-4.42-.55-8.91-.58-13.36-.39-4.46.18-8.87.96-13.18,2.12-4.31,1.17-8.75,1.95-13.22,2.13-4.46.19-8.95.16-13.4-.39-2.22-.25-4.42-.7-6.59-1.23-2.17-.53-4.32-1.13-6.51-1.58-4.37-.93-8.84-1.23-13.3-1.23v-.15Z"/>
          <path class="cls-2" d="m.24,119.65c4.46-.1,8.97.09,13.4.92,2.21.4,4.39.95,6.56,1.42,2.17.47,4.34.86,6.54,1.05,4.38.47,8.84.45,13.25.19,4.42-.24,8.7-1.06,12.99-2.28,2.15-.59,4.37-1.16,6.62-1.55,2.25-.38,4.52-.64,6.79-.74,4.53-.22,9.05-.21,13.59.33,2.27.25,4.53.7,6.73,1.22,2.2.52,4.34,1.11,6.48,1.53,4.27.89,8.65,1.15,13.06,1.14,4.41.01,8.79-.26,13.06-1.14,2.14-.43,4.28-1.01,6.48-1.54,2.2-.52,4.46-.97,6.73-1.22,4.54-.53,9.07-.54,13.59-.33,2.26.11,4.54.36,6.78.75,2.25.39,4.46.96,6.61,1.55,4.28,1.22,8.56,2.04,12.99,2.28,4.41.25,8.87.27,13.25-.19,2.2-.2,4.37-.59,6.54-1.06,2.17-.47,4.35-1.02,6.56-1.42,4.43-.83,8.93-1.02,13.4-.92v.15c-4.46,0-8.94.31-13.3,1.23-2.18.45-4.34,1.05-6.51,1.58-2.17.53-4.37.97-6.59,1.23-4.44.55-8.93.58-13.4.39-4.47-.18-8.91-.96-13.22-2.13-4.31-1.17-8.72-1.94-13.18-2.13-4.45-.19-8.93-.16-13.36.38-2.21.25-4.4.7-6.57,1.22-2.17.53-4.32,1.13-6.52,1.58-4.38.93-8.88,1.23-13.35,1.24-4.47,0-8.96-.31-13.35-1.24-2.19-.45-4.35-1.05-6.52-1.58-2.17-.52-4.35-.97-6.57-1.22-4.42-.55-8.91-.58-13.36-.39-4.46.18-8.87.96-13.18,2.12-4.31,1.17-8.75,1.95-13.22,2.13-4.46.19-8.95.16-13.4-.39-2.22-.25-4.42-.7-6.59-1.23-2.17-.53-4.32-1.13-6.51-1.58-4.37-.93-8.84-1.23-13.3-1.23v-.15Z"/>
          <path class="cls-2" d="m.24,125.57c4.46-.1,8.97.09,13.4.92,2.21.4,4.39.95,6.56,1.42,2.17.47,4.34.86,6.54,1.05,4.38.47,8.84.45,13.25.19,4.42-.24,8.7-1.06,12.99-2.28,2.15-.59,4.37-1.16,6.62-1.55,2.25-.38,4.52-.64,6.79-.74,4.53-.22,9.05-.21,13.59.33,2.27.25,4.53.7,6.73,1.22,2.2.52,4.34,1.11,6.48,1.53,4.27.89,8.65,1.15,13.06,1.14,4.41.01,8.79-.26,13.06-1.14,2.14-.43,4.28-1.01,6.48-1.54,2.2-.52,4.46-.97,6.73-1.22,4.54-.53,9.07-.54,13.59-.33,2.26.11,4.54.36,6.78.75,2.25.39,4.46.96,6.61,1.55,4.28,1.22,8.56,2.04,12.99,2.28,4.41.25,8.87.27,13.25-.19,2.2-.2,4.37-.59,6.54-1.06,2.17-.47,4.35-1.02,6.56-1.42,4.43-.83,8.93-1.02,13.4-.92v.15c-4.46,0-8.94.31-13.3,1.23-2.18.45-4.34,1.05-6.51,1.58-2.17.53-4.37.97-6.59,1.23-4.44.55-8.93.58-13.4.39-4.47-.18-8.91-.96-13.22-2.13-4.31-1.17-8.72-1.94-13.18-2.13-4.45-.19-8.93-.16-13.36.38-2.21.25-4.4.7-6.57,1.22-2.17.53-4.32,1.13-6.52,1.58-4.38.93-8.88,1.23-13.35,1.24-4.47,0-8.96-.31-13.35-1.24-2.19-.45-4.35-1.05-6.52-1.58-2.17-.52-4.35-.97-6.57-1.22-4.42-.55-8.91-.58-13.36-.39-4.46.18-8.87.96-13.18,2.12-4.31,1.17-8.75,1.95-13.22,2.13-4.46.19-8.95.16-13.4-.39-2.22-.25-4.42-.7-6.59-1.23-2.17-.53-4.32-1.13-6.51-1.58-4.37-.93-8.84-1.23-13.3-1.23v-.15Z"/>
          <path class="cls-2" d="m.24,131.5c4.46-.1,8.97.09,13.4.92,2.21.4,4.39.95,6.56,1.42,2.17.47,4.34.86,6.54,1.05,4.38.47,8.84.45,13.25.19,4.42-.24,8.7-1.06,12.99-2.28,2.15-.59,4.37-1.16,6.62-1.55,2.25-.38,4.52-.64,6.79-.74,4.53-.22,9.05-.21,13.59.33,2.27.25,4.53.7,6.73,1.22,2.2.52,4.34,1.11,6.48,1.53,4.27.89,8.65,1.15,13.06,1.14,4.41.01,8.79-.26,13.06-1.14,2.14-.43,4.28-1.01,6.48-1.54,2.2-.52,4.46-.97,6.73-1.22,4.54-.53,9.07-.54,13.59-.33,2.26.11,4.54.36,6.78.75,2.25.39,4.46.96,6.61,1.55,4.28,1.22,8.56,2.04,12.99,2.28,4.41.25,8.87.27,13.25-.19,2.2-.2,4.37-.59,6.54-1.06,2.17-.47,4.35-1.02,6.56-1.42,4.43-.83,8.93-1.02,13.4-.92v.15c-4.46,0-8.94.31-13.3,1.23-2.18.45-4.34,1.05-6.51,1.58-2.17.53-4.37.97-6.59,1.23-4.44.55-8.93.58-13.4.39-4.47-.18-8.91-.96-13.22-2.13-4.31-1.17-8.72-1.94-13.18-2.13-4.45-.19-8.93-.16-13.36.38-2.21.25-4.4.7-6.57,1.22-2.17.53-4.32,1.13-6.52,1.58-4.38.93-8.88,1.23-13.35,1.24-4.47,0-8.96-.31-13.35-1.24-2.19-.45-4.35-1.05-6.52-1.58-2.17-.52-4.35-.97-6.57-1.22-4.42-.55-8.91-.58-13.36-.39-4.46.18-8.87.96-13.18,2.12-4.31,1.17-8.75,1.95-13.22,2.13-4.46.19-8.95.16-13.4-.39-2.22-.25-4.42-.7-6.59-1.23-2.17-.53-4.32-1.13-6.51-1.58-4.37-.93-8.84-1.23-13.3-1.23v-.15Z"/>
          <path class="cls-2" d="m.24,137.43c4.46-.1,8.97.09,13.4.92,2.21.4,4.39.95,6.56,1.42,2.17.47,4.34.86,6.54,1.05,4.38.47,8.84.45,13.25.19,4.42-.24,8.7-1.06,12.99-2.28,2.15-.59,4.37-1.16,6.62-1.55,2.25-.38,4.52-.64,6.79-.74,4.53-.22,9.05-.21,13.59.33,2.27.25,4.53.7,6.73,1.22,2.2.52,4.34,1.11,6.48,1.53,4.27.89,8.65,1.15,13.06,1.14,4.41.01,8.79-.26,13.06-1.14,2.14-.43,4.28-1.01,6.48-1.54,2.2-.52,4.46-.97,6.73-1.22,4.54-.53,9.07-.54,13.59-.33,2.26.11,4.54.36,6.78.75,2.25.39,4.46.96,6.61,1.55,4.28,1.22,8.56,2.04,12.99,2.28,4.41.25,8.87.27,13.25-.19,2.2-.2,4.37-.59,6.54-1.06,2.17-.47,4.35-1.02,6.56-1.42,4.43-.83,8.93-1.02,13.4-.92v.15c-4.46,0-8.94.31-13.3,1.23-2.18.45-4.34,1.05-6.51,1.58-2.17.53-4.37.97-6.59,1.23-4.44.55-8.93.58-13.4.39-4.47-.18-8.91-.96-13.22-2.13-4.31-1.17-8.72-1.94-13.18-2.13-4.45-.19-8.93-.16-13.36.38-2.21.25-4.4.7-6.57,1.22-2.17.53-4.32,1.13-6.52,1.58-4.38.93-8.88,1.23-13.35,1.24-4.47,0-8.96-.31-13.35-1.24-2.19-.45-4.35-1.05-6.52-1.58-2.17-.52-4.35-.97-6.57-1.22-4.42-.55-8.91-.58-13.36-.39-4.46.18-8.87.96-13.18,2.12-4.31,1.17-8.75,1.95-13.22,2.13-4.46.19-8.95.16-13.4-.39-2.22-.25-4.42-.7-6.59-1.23-2.17-.53-4.32-1.13-6.51-1.58-4.37-.93-8.84-1.23-13.3-1.23v-.15Z"/>
          <path class="cls-2" d="m.24,143.35c4.46-.1,8.97.09,13.4.92,2.21.4,4.39.95,6.56,1.42,2.17.47,4.34.86,6.54,1.05,4.38.47,8.84.45,13.25.19,4.42-.24,8.7-1.06,12.99-2.28,2.15-.59,4.37-1.16,6.62-1.55,2.25-.38,4.52-.64,6.79-.74,4.53-.22,9.05-.21,13.59.33,2.27.25,4.53.7,6.73,1.22,2.2.52,4.34,1.11,6.48,1.53,4.27.89,8.65,1.15,13.06,1.14,4.41.01,8.79-.26,13.06-1.14,2.14-.43,4.28-1.01,6.48-1.54,2.2-.52,4.46-.97,6.73-1.22,4.54-.53,9.07-.54,13.59-.33,2.26.11,4.54.36,6.78.75,2.25.39,4.46.96,6.61,1.55,4.28,1.22,8.56,2.04,12.99,2.28,4.41.25,8.87.27,13.25-.19,2.2-.2,4.37-.59,6.54-1.06,2.17-.47,4.35-1.02,6.56-1.42,4.43-.83,8.93-1.02,13.4-.92v.15c-4.46,0-8.94.31-13.3,1.23-2.18.45-4.34,1.05-6.51,1.58-2.17.53-4.37.97-6.59,1.23-4.44.55-8.93.58-13.4.39-4.47-.18-8.91-.96-13.22-2.13-4.31-1.17-8.72-1.94-13.18-2.13-4.45-.19-8.93-.16-13.36.38-2.21.25-4.4.7-6.57,1.22-2.17.53-4.32,1.13-6.52,1.58-4.38.93-8.88,1.23-13.35,1.24-4.47,0-8.96-.31-13.35-1.24-2.19-.45-4.35-1.05-6.52-1.58-2.17-.52-4.35-.97-6.57-1.22-4.42-.55-8.91-.58-13.36-.39-4.46.18-8.87.96-13.18,2.12-4.31,1.17-8.75,1.95-13.22,2.13-4.46.19-8.95.16-13.4-.39-2.22-.25-4.42-.7-6.59-1.23-2.17-.53-4.32-1.13-6.51-1.58-4.37-.93-8.84-1.23-13.3-1.23v-.15Z"/>
          <path class="cls-2" d="m.24,149.28c4.46-.1,8.97.09,13.4.92,2.21.4,4.39.95,6.56,1.42,2.17.47,4.34.86,6.54,1.05,4.38.47,8.84.45,13.25.19,4.42-.24,8.7-1.06,12.99-2.28,2.15-.59,4.37-1.16,6.62-1.55,2.25-.38,4.52-.64,6.79-.74,4.53-.22,9.05-.21,13.59.33,2.27.25,4.53.7,6.73,1.22,2.2.52,4.34,1.11,6.48,1.53,4.27.89,8.65,1.15,13.06,1.14,4.41.01,8.79-.26,13.06-1.14,2.14-.43,4.28-1.01,6.48-1.54,2.2-.52,4.46-.97,6.73-1.22,4.54-.53,9.07-.54,13.59-.33,2.26.11,4.54.36,6.78.75,2.25.39,4.46.96,6.61,1.55,4.28,1.22,8.56,2.04,12.99,2.28,4.41.25,8.87.27,13.25-.19,2.2-.2,4.37-.59,6.54-1.06,2.17-.47,4.35-1.02,6.56-1.42,4.43-.83,8.93-1.02,13.4-.92v.15c-4.46,0-8.94.31-13.3,1.23-2.18.45-4.34,1.05-6.51,1.58-2.17.53-4.37.97-6.59,1.23-4.44.55-8.93.58-13.4.39-4.47-.18-8.91-.96-13.22-2.13-4.31-1.17-8.72-1.94-13.18-2.13-4.45-.19-8.93-.16-13.36.38-2.21.25-4.4.7-6.57,1.22-2.17.53-4.32,1.13-6.52,1.58-4.38.93-8.88,1.23-13.35,1.24-4.47,0-8.96-.31-13.35-1.24-2.19-.45-4.35-1.05-6.52-1.58-2.17-.52-4.35-.97-6.57-1.22-4.42-.55-8.91-.58-13.36-.39-4.46.18-8.87.96-13.18,2.12-4.31,1.17-8.75,1.95-13.22,2.13-4.46.19-8.95.16-13.4-.39-2.22-.25-4.42-.7-6.59-1.23-2.17-.53-4.32-1.13-6.51-1.58-4.37-.93-8.84-1.23-13.3-1.23v-.15Z"/>
          <path class="cls-2" d="m.24,155.21c4.46-.1,8.97.09,13.4.92,2.21.4,4.39.95,6.56,1.42,2.17.47,4.34.86,6.54,1.05,4.38.47,8.84.45,13.25.19,4.42-.24,8.7-1.06,12.99-2.28,2.15-.59,4.37-1.16,6.62-1.55,2.25-.38,4.52-.64,6.79-.74,4.53-.22,9.05-.21,13.59.33,2.27.25,4.53.7,6.73,1.22,2.2.52,4.34,1.11,6.48,1.53,4.27.89,8.65,1.15,13.06,1.14,4.41.01,8.79-.26,13.06-1.14,2.14-.43,4.28-1.01,6.48-1.54,2.2-.52,4.46-.97,6.73-1.22,4.54-.53,9.07-.54,13.59-.33,2.26.11,4.54.36,6.78.75,2.25.39,4.46.96,6.61,1.55,4.28,1.22,8.56,2.04,12.99,2.28,4.41.25,8.87.27,13.25-.19,2.2-.2,4.37-.59,6.54-1.06,2.17-.47,4.35-1.02,6.56-1.42,4.43-.83,8.93-1.02,13.4-.92v.15c-4.46,0-8.94.31-13.3,1.23-2.18.45-4.34,1.05-6.51,1.58-2.17.53-4.37.97-6.59,1.23-4.44.55-8.93.58-13.4.39-4.47-.18-8.91-.96-13.22-2.13-4.31-1.17-8.72-1.94-13.18-2.13-4.45-.19-8.93-.16-13.36.38-2.21.25-4.4.7-6.57,1.22-2.17.53-4.32,1.13-6.52,1.58-4.38.93-8.88,1.23-13.35,1.24-4.47,0-8.96-.31-13.35-1.24-2.19-.45-4.35-1.05-6.52-1.58-2.17-.52-4.35-.97-6.57-1.22-4.42-.55-8.91-.58-13.36-.39-4.46.18-8.87.96-13.18,2.12-4.31,1.17-8.75,1.95-13.22,2.13-4.46.19-8.95.16-13.4-.39-2.22-.25-4.42-.7-6.59-1.23-2.17-.53-4.32-1.13-6.51-1.58-4.37-.93-8.84-1.23-13.3-1.23v-.15Z"/>
          <path class="cls-2" d="m.24,161.14c4.46-.1,8.97.09,13.4.92,2.21.4,4.39.95,6.56,1.42,2.17.47,4.34.86,6.54,1.05,4.38.47,8.84.45,13.25.19,4.42-.24,8.7-1.06,12.99-2.28,2.15-.59,4.37-1.16,6.62-1.55,2.25-.38,4.52-.64,6.79-.74,4.53-.22,9.05-.21,13.59.33,2.27.25,4.53.7,6.73,1.22,2.2.52,4.34,1.11,6.48,1.53,4.27.89,8.65,1.15,13.06,1.14,4.41.01,8.79-.26,13.06-1.14,2.14-.43,4.28-1.01,6.48-1.54,2.2-.52,4.46-.97,6.73-1.22,4.54-.53,9.07-.54,13.59-.33,2.26.11,4.54.36,6.78.75,2.25.39,4.46.96,6.61,1.55,4.28,1.22,8.56,2.04,12.99,2.28,4.41.25,8.87.27,13.25-.19,2.2-.2,4.37-.59,6.54-1.06,2.17-.47,4.35-1.02,6.56-1.42,4.43-.83,8.93-1.02,13.4-.92v.15c-4.46,0-8.94.31-13.3,1.23-2.18.45-4.34,1.05-6.51,1.58-2.17.53-4.37.97-6.59,1.23-4.44.55-8.93.58-13.4.39-4.47-.18-8.91-.96-13.22-2.13-4.31-1.17-8.72-1.94-13.18-2.13-4.45-.19-8.93-.16-13.36.38-2.21.25-4.4.7-6.57,1.22-2.17.53-4.32,1.13-6.52,1.58-4.38.93-8.88,1.23-13.35,1.24-4.47,0-8.96-.31-13.35-1.24-2.19-.45-4.35-1.05-6.52-1.58-2.17-.52-4.35-.97-6.57-1.22-4.42-.55-8.91-.58-13.36-.39-4.46.18-8.87.96-13.18,2.12-4.31,1.17-8.75,1.95-13.22,2.13-4.46.19-8.95.16-13.4-.39-2.22-.25-4.42-.7-6.59-1.23-2.17-.53-4.32-1.13-6.51-1.58-4.37-.93-8.84-1.23-13.3-1.23v-.15Z"/>
          <path class="cls-2" d="m.24,167.06c4.46-.1,8.97.09,13.4.92,2.21.4,4.39.95,6.56,1.42,2.17.47,4.34.86,6.54,1.05,4.38.47,8.84.45,13.25.19,4.42-.24,8.7-1.06,12.99-2.28,2.15-.59,4.37-1.16,6.62-1.55,2.25-.38,4.52-.64,6.79-.74,4.53-.22,9.05-.21,13.59.33,2.27.25,4.53.7,6.73,1.22,2.2.52,4.34,1.11,6.48,1.53,4.27.89,8.65,1.15,13.06,1.14,4.41.01,8.79-.26,13.06-1.14,2.14-.43,4.28-1.01,6.48-1.54,2.2-.52,4.46-.97,6.73-1.22,4.54-.53,9.07-.54,13.59-.33,2.26.11,4.54.36,6.78.75,2.25.39,4.46.96,6.61,1.55,4.28,1.22,8.56,2.04,12.99,2.28,4.41.25,8.87.27,13.25-.19,2.2-.2,4.37-.59,6.54-1.06,2.17-.47,4.35-1.02,6.56-1.42,4.43-.83,8.93-1.02,13.4-.92v.15c-4.46,0-8.94.31-13.3,1.23-2.18.45-4.34,1.05-6.51,1.58-2.17.53-4.37.97-6.59,1.23-4.44.55-8.93.58-13.4.39-4.47-.18-8.91-.96-13.22-2.13-4.31-1.17-8.72-1.94-13.18-2.13-4.45-.19-8.93-.16-13.36.38-2.21.25-4.4.7-6.57,1.22-2.17.53-4.32,1.13-6.52,1.58-4.38.93-8.88,1.23-13.35,1.24-4.47,0-8.96-.31-13.35-1.24-2.19-.45-4.35-1.05-6.52-1.58-2.17-.52-4.35-.97-6.57-1.22-4.42-.55-8.91-.58-13.36-.39-4.46.18-8.87.96-13.18,2.12-4.31,1.17-8.75,1.95-13.22,2.13-4.46.19-8.95.16-13.4-.39-2.22-.25-4.42-.7-6.59-1.23-2.17-.53-4.32-1.13-6.51-1.58-4.37-.93-8.84-1.23-13.3-1.23v-.15Z"/>
          <path class="cls-2" d="m.24,172.99c4.46-.1,8.97.09,13.4.92,2.21.4,4.39.95,6.56,1.42,2.17.47,4.34.86,6.54,1.05,4.38.47,8.84.45,13.25.19,4.42-.24,8.7-1.06,12.99-2.28,2.15-.59,4.37-1.16,6.62-1.55,2.25-.38,4.52-.64,6.79-.74,4.53-.22,9.05-.21,13.59.33,2.27.25,4.53.7,6.73,1.22,2.2.52,4.34,1.11,6.48,1.53,4.27.89,8.65,1.15,13.06,1.14,4.41.01,8.79-.26,13.06-1.14,2.14-.43,4.28-1.01,6.48-1.54,2.2-.52,4.46-.97,6.73-1.22,4.54-.53,9.07-.54,13.59-.33,2.26.11,4.54.36,6.78.75,2.25.39,4.46.96,6.61,1.55,4.28,1.22,8.56,2.04,12.99,2.28,4.41.25,8.87.27,13.25-.19,2.2-.2,4.37-.59,6.54-1.06,2.17-.47,4.35-1.02,6.56-1.42,4.43-.83,8.93-1.02,13.4-.92v.15c-4.46,0-8.94.31-13.3,1.23-2.18.45-4.34,1.05-6.51,1.58-2.17.53-4.37.97-6.59,1.23-4.44.55-8.93.58-13.4.39-4.47-.18-8.91-.96-13.22-2.13-4.31-1.17-8.72-1.94-13.18-2.13-4.45-.19-8.93-.16-13.36.38-2.21.25-4.4.7-6.57,1.22-2.17.53-4.32,1.13-6.52,1.58-4.38.93-8.88,1.23-13.35,1.24-4.47,0-8.96-.31-13.35-1.24-2.19-.45-4.35-1.05-6.52-1.58-2.17-.52-4.35-.97-6.57-1.22-4.42-.55-8.91-.58-13.36-.39-4.46.18-8.87.96-13.18,2.12-4.31,1.17-8.75,1.95-13.22,2.13-4.46.19-8.95.16-13.4-.39-2.22-.25-4.42-.7-6.59-1.23-2.17-.53-4.32-1.13-6.51-1.58-4.37-.93-8.84-1.23-13.3-1.23v-.15Z"/>
          <path class="cls-2" d="m.24,178.92c4.46-.1,8.97.09,13.4.92,2.21.4,4.39.95,6.56,1.42,2.17.47,4.34.86,6.54,1.05,4.38.47,8.84.45,13.25.19,4.42-.24,8.7-1.06,12.99-2.28,2.15-.59,4.37-1.16,6.62-1.55,2.25-.38,4.52-.64,6.79-.74,4.53-.22,9.05-.21,13.59.33,2.27.25,4.53.7,6.73,1.22,2.2.52,4.34,1.11,6.48,1.53,4.27.89,8.65,1.15,13.06,1.14,4.41.01,8.79-.26,13.06-1.14,2.14-.43,4.28-1.01,6.48-1.54,2.2-.52,4.46-.97,6.73-1.22,4.54-.53,9.07-.54,13.59-.33,2.26.11,4.54.36,6.78.75,2.25.39,4.46.96,6.61,1.55,4.28,1.22,8.56,2.04,12.99,2.28,4.41.25,8.87.27,13.25-.19,2.2-.2,4.37-.59,6.54-1.06,2.17-.47,4.35-1.02,6.56-1.42,4.43-.83,8.93-1.02,13.4-.92v.15c-4.46,0-8.94.31-13.3,1.23-2.18.45-4.34,1.05-6.51,1.58-2.17.53-4.37.97-6.59,1.23-4.44.55-8.93.58-13.4.39-4.47-.18-8.91-.96-13.22-2.13-4.31-1.17-8.72-1.94-13.18-2.13-4.45-.19-8.93-.16-13.36.38-2.21.25-4.4.7-6.57,1.22-2.17.53-4.32,1.13-6.52,1.58-4.38.93-8.88,1.23-13.35,1.24-4.47,0-8.96-.31-13.35-1.24-2.19-.45-4.35-1.05-6.52-1.58-2.17-.52-4.35-.97-6.57-1.22-4.42-.55-8.91-.58-13.36-.39-4.46.18-8.87.96-13.18,2.12-4.31,1.17-8.75,1.95-13.22,2.13-4.46.19-8.95.16-13.4-.39-2.22-.25-4.42-.7-6.59-1.23-2.17-.53-4.32-1.13-6.51-1.58-4.37-.93-8.84-1.23-13.3-1.23v-.15Z"/>
          <path class="cls-2" d="m.24,184.84c4.46-.1,8.97.09,13.4.92,2.21.4,4.39.95,6.56,1.42,2.17.47,4.34.86,6.54,1.05,4.38.47,8.84.45,13.25.19,4.42-.24,8.7-1.06,12.99-2.28,2.15-.59,4.37-1.16,6.62-1.55,2.25-.38,4.52-.64,6.79-.74,4.53-.22,9.05-.21,13.59.33,2.27.25,4.53.7,6.73,1.22,2.2.52,4.34,1.11,6.48,1.53,4.27.89,8.65,1.15,13.06,1.14,4.41.01,8.79-.26,13.06-1.14,2.14-.43,4.28-1.01,6.48-1.54,2.2-.52,4.46-.97,6.73-1.22,4.54-.53,9.07-.54,13.59-.33,2.26.11,4.54.36,6.78.75,2.25.39,4.46.96,6.61,1.55,4.28,1.22,8.56,2.04,12.99,2.28,4.41.25,8.87.27,13.25-.19,2.2-.2,4.37-.59,6.54-1.06,2.17-.47,4.35-1.02,6.56-1.42,4.43-.83,8.93-1.02,13.4-.92v.15c-4.46,0-8.94.31-13.3,1.23-2.18.45-4.34,1.05-6.51,1.58-2.17.53-4.37.97-6.59,1.23-4.44.55-8.93.58-13.4.39-4.47-.18-8.91-.96-13.22-2.13-4.31-1.17-8.72-1.94-13.18-2.13-4.45-.19-8.93-.16-13.36.38-2.21.25-4.4.7-6.57,1.22-2.17.53-4.32,1.13-6.52,1.58-4.38.93-8.88,1.23-13.35,1.24-4.47,0-8.96-.31-13.35-1.24-2.19-.45-4.35-1.05-6.52-1.58-2.17-.52-4.35-.97-6.57-1.22-4.42-.55-8.91-.58-13.36-.39-4.46.18-8.87.96-13.18,2.12-4.31,1.17-8.75,1.95-13.22,2.13-4.46.19-8.95.16-13.4-.39-2.22-.25-4.42-.7-6.59-1.23-2.17-.53-4.32-1.13-6.51-1.58-4.37-.93-8.84-1.23-13.3-1.23v-.15Z"/>
          <path class="cls-2" d="m.24,190.77c4.46-.1,8.97.09,13.4.92,2.21.4,4.39.95,6.56,1.42,2.17.47,4.34.86,6.54,1.05,4.38.47,8.84.45,13.25.19,4.42-.24,8.7-1.06,12.99-2.28,2.15-.59,4.37-1.16,6.62-1.55,2.25-.38,4.52-.64,6.79-.74,4.53-.22,9.05-.21,13.59.33,2.27.25,4.53.7,6.73,1.22,2.2.52,4.34,1.11,6.48,1.53,4.27.89,8.65,1.15,13.06,1.14,4.41.01,8.79-.26,13.06-1.14,2.14-.43,4.28-1.01,6.48-1.54,2.2-.52,4.46-.97,6.73-1.22,4.54-.53,9.07-.54,13.59-.33,2.26.11,4.54.36,6.78.75,2.25.39,4.46.96,6.61,1.55,4.28,1.22,8.56,2.04,12.99,2.28,4.41.25,8.87.27,13.25-.19,2.2-.2,4.37-.59,6.54-1.06,2.17-.47,4.35-1.02,6.56-1.42,4.43-.83,8.93-1.02,13.4-.92v.15c-4.46,0-8.94.31-13.3,1.23-2.18.45-4.34,1.05-6.51,1.58-2.17.53-4.37.97-6.59,1.23-4.44.55-8.93.58-13.4.39-4.47-.18-8.91-.96-13.22-2.13-4.31-1.17-8.72-1.94-13.18-2.13-4.45-.19-8.93-.16-13.36.38-2.21.25-4.4.7-6.57,1.22-2.17.53-4.32,1.13-6.52,1.58-4.38.93-8.88,1.23-13.35,1.24-4.47,0-8.96-.31-13.35-1.24-2.19-.45-4.35-1.05-6.52-1.58-2.17-.52-4.35-.97-6.57-1.22-4.42-.55-8.91-.58-13.36-.39-4.46.18-8.87.96-13.18,2.12-4.31,1.17-8.75,1.95-13.22,2.13-4.46.19-8.95.16-13.4-.39-2.22-.25-4.42-.7-6.59-1.23-2.17-.53-4.32-1.13-6.51-1.58-4.37-.93-8.84-1.23-13.3-1.23v-.15Z"/>
          <path class="cls-2" d="m.24,196.7c4.46-.1,8.97.09,13.4.92,2.21.4,4.39.95,6.56,1.42,2.17.47,4.34.86,6.54,1.05,4.38.47,8.84.45,13.25.19,4.42-.24,8.7-1.06,12.99-2.28,2.15-.59,4.37-1.16,6.62-1.55,2.25-.38,4.52-.64,6.79-.74,4.53-.22,9.05-.21,13.59.33,2.27.25,4.53.7,6.73,1.22,2.2.52,4.34,1.11,6.48,1.53,4.27.89,8.65,1.15,13.06,1.14,4.41.01,8.79-.26,13.06-1.14,2.14-.43,4.28-1.01,6.48-1.54,2.2-.52,4.46-.97,6.73-1.22,4.54-.53,9.07-.54,13.59-.33,2.26.11,4.54.36,6.78.75,2.25.39,4.46.96,6.61,1.55,4.28,1.22,8.56,2.04,12.99,2.28,4.41.25,8.87.27,13.25-.19,2.2-.2,4.37-.59,6.54-1.06,2.17-.47,4.35-1.02,6.56-1.42,4.43-.83,8.93-1.02,13.4-.92v.15c-4.46,0-8.94.31-13.3,1.23-2.18.45-4.34,1.05-6.51,1.58-2.17.53-4.37.97-6.59,1.23-4.44.55-8.93.58-13.4.39-4.47-.18-8.91-.96-13.22-2.13-4.31-1.17-8.72-1.94-13.18-2.13-4.45-.19-8.93-.16-13.36.38-2.21.25-4.4.7-6.57,1.22-2.17.53-4.32,1.13-6.52,1.58-4.38.93-8.88,1.23-13.35,1.24-4.47,0-8.96-.31-13.35-1.24-2.19-.45-4.35-1.05-6.52-1.58-2.17-.52-4.35-.97-6.57-1.22-4.42-.55-8.91-.58-13.36-.39-4.46.18-8.87.96-13.18,2.12-4.31,1.17-8.75,1.95-13.22,2.13-4.46.19-8.95.16-13.4-.39-2.22-.25-4.42-.7-6.59-1.23-2.17-.53-4.32-1.13-6.51-1.58-4.37-.93-8.84-1.23-13.3-1.23v-.15Z"/>
          <path class="cls-2" d="m.24,202.62c4.46-.1,8.97.09,13.4.92,2.21.4,4.39.95,6.56,1.42,2.17.47,4.34.86,6.54,1.05,4.38.47,8.84.45,13.25.19,4.42-.24,8.7-1.06,12.99-2.28,2.15-.59,4.37-1.16,6.62-1.55,2.25-.38,4.52-.64,6.79-.74,4.53-.22,9.05-.21,13.59.33,2.27.25,4.53.7,6.73,1.22,2.2.52,4.34,1.11,6.48,1.53,4.27.89,8.65,1.15,13.06,1.14,4.41.01,8.79-.26,13.06-1.14,2.14-.43,4.28-1.01,6.48-1.54,2.2-.52,4.46-.97,6.73-1.22,4.54-.53,9.07-.54,13.59-.33,2.26.11,4.54.36,6.78.75,2.25.39,4.46.96,6.61,1.55,4.28,1.22,8.56,2.04,12.99,2.28,4.41.25,8.87.27,13.25-.19,2.2-.2,4.37-.59,6.54-1.06,2.17-.47,4.35-1.02,6.56-1.42,4.43-.83,8.93-1.02,13.4-.92v.15c-4.46,0-8.94.31-13.3,1.23-2.18.45-4.34,1.05-6.51,1.58-2.17.53-4.37.97-6.59,1.23-4.44.55-8.93.58-13.4.39-4.47-.18-8.91-.96-13.22-2.13-4.31-1.17-8.72-1.94-13.18-2.13-4.45-.19-8.93-.16-13.36.38-2.21.25-4.4.7-6.57,1.22-2.17.53-4.32,1.13-6.52,1.58-4.38.93-8.88,1.23-13.35,1.24-4.47,0-8.96-.31-13.35-1.24-2.19-.45-4.35-1.05-6.52-1.58-2.17-.52-4.35-.97-6.57-1.22-4.42-.55-8.91-.58-13.36-.39-4.46.18-8.87.96-13.18,2.12-4.31,1.17-8.75,1.95-13.22,2.13-4.46.19-8.95.16-13.4-.39-2.22-.25-4.42-.7-6.59-1.23-2.17-.53-4.32-1.13-6.51-1.58-4.37-.93-8.84-1.23-13.3-1.23v-.15Z"/>
          <path class="cls-2" d="m.24,208.55c4.46-.1,8.97.09,13.4.92,2.21.4,4.39.95,6.56,1.42,2.17.47,4.34.86,6.54,1.05,4.38.47,8.84.45,13.25.19,4.42-.24,8.7-1.06,12.99-2.28,2.15-.59,4.37-1.16,6.62-1.55,2.25-.38,4.52-.64,6.79-.74,4.53-.22,9.05-.21,13.59.33,2.27.25,4.53.7,6.73,1.22,2.2.52,4.34,1.11,6.48,1.53,4.27.89,8.65,1.15,13.06,1.14,4.41.01,8.79-.26,13.06-1.14,2.14-.43,4.28-1.01,6.48-1.54,2.2-.52,4.46-.97,6.73-1.22,4.54-.53,9.07-.54,13.59-.33,2.26.11,4.54.36,6.78.75,2.25.39,4.46.96,6.61,1.55,4.28,1.22,8.56,2.04,12.99,2.28,4.41.25,8.87.27,13.25-.19,2.2-.2,4.37-.59,6.54-1.06,2.17-.47,4.35-1.02,6.56-1.42,4.43-.83,8.93-1.02,13.4-.92v.15c-4.46,0-8.94.31-13.3,1.23-2.18.45-4.34,1.05-6.51,1.58-2.17.53-4.37.97-6.59,1.23-4.44.55-8.93.58-13.4.39-4.47-.18-8.91-.96-13.22-2.13-4.31-1.17-8.72-1.94-13.18-2.13-4.45-.19-8.93-.16-13.36.38-2.21.25-4.4.7-6.57,1.22-2.17.53-4.32,1.13-6.52,1.58-4.38.93-8.88,1.23-13.35,1.24-4.47,0-8.96-.31-13.35-1.24-2.19-.45-4.35-1.05-6.52-1.58-2.17-.52-4.35-.97-6.57-1.22-4.42-.55-8.91-.58-13.36-.39-4.46.18-8.87.96-13.18,2.12-4.31,1.17-8.75,1.95-13.22,2.13-4.46.19-8.95.16-13.4-.39-2.22-.25-4.42-.7-6.59-1.23-2.17-.53-4.32-1.13-6.51-1.58-4.37-.93-8.84-1.23-13.3-1.23v-.15Z"/>
          <path class="cls-2" d="m.24,214.48c4.46-.1,8.97.09,13.4.92,2.21.4,4.39.95,6.56,1.42,2.17.47,4.34.86,6.54,1.05,4.38.47,8.84.45,13.25.19,4.42-.24,8.7-1.06,12.99-2.28,2.15-.59,4.37-1.16,6.62-1.55,2.25-.38,4.52-.64,6.79-.74,4.53-.22,9.05-.21,13.59.33,2.27.25,4.53.7,6.73,1.22,2.2.52,4.34,1.11,6.48,1.53,4.27.89,8.65,1.15,13.06,1.14,4.41.01,8.79-.26,13.06-1.14,2.14-.43,4.28-1.01,6.48-1.54,2.2-.52,4.46-.97,6.73-1.22,4.54-.53,9.07-.54,13.59-.33,2.26.11,4.54.36,6.78.75,2.25.39,4.46.96,6.61,1.55,4.28,1.22,8.56,2.04,12.99,2.28,4.41.25,8.87.27,13.25-.19,2.2-.2,4.37-.59,6.54-1.06,2.17-.47,4.35-1.02,6.56-1.42,4.43-.83,8.93-1.02,13.4-.92v.15c-4.46,0-8.94.31-13.3,1.23-2.18.45-4.34,1.05-6.51,1.58-2.17.53-4.37.97-6.59,1.23-4.44.55-8.93.58-13.4.39-4.47-.18-8.91-.96-13.22-2.13-4.31-1.17-8.72-1.94-13.18-2.13-4.45-.19-8.93-.16-13.36.38-2.21.25-4.4.7-6.57,1.22-2.17.53-4.32,1.13-6.52,1.58-4.38.93-8.88,1.23-13.35,1.24-4.47,0-8.96-.31-13.35-1.24-2.19-.45-4.35-1.05-6.52-1.58-2.17-.52-4.35-.97-6.57-1.22-4.42-.55-8.91-.58-13.36-.39-4.46.18-8.87.96-13.18,2.12-4.31,1.17-8.75,1.95-13.22,2.13-4.46.19-8.95.16-13.4-.39-2.22-.25-4.42-.7-6.59-1.23-2.17-.53-4.32-1.13-6.51-1.58-4.37-.93-8.84-1.23-13.3-1.23v-.15Z"/>
        </g>
      </g>
    </symbol>
  </defs>
  <g id="Layer_1-2" data-name="Layer 1">
    <use width="212.48" height="219.22" transform="scale(1.39)" xlink:href="#New_Symbol"/>
  </g>
</svg>