<?xml version="1.0" encoding="UTF-8"?>
<svg id="Layer_2" data-name="Layer 2" xmlns="http://www.w3.org/2000/svg" width="39.51" height="39.61" viewBox="0 0 39.51 39.61">
  <defs>
    <style>
      .cls-1 {
        fill-rule: evenodd;
      }

      .cls-1, .cls-2 {
        fill: #05386b;
        stroke-width: 0px;
      }
    </style>
  </defs>
  <g id="Layer_1-2" data-name="Layer 1">
    <g>
      <path class="cls-2" d="m0,39.61l2.84-10.6c-1.61-2.9-2.45-6.15-2.45-9.45C.39,8.78,9.16,0,19.95,0s19.56,8.78,19.56,19.56-8.78,19.56-19.56,19.56c-3.24,0-6.44-.82-9.3-2.37l-10.65,2.85Zm11.18-6.82l.67.4c2.46,1.47,5.26,2.24,8.1,2.24,8.75,0,15.87-7.12,15.87-15.87S28.7,3.7,19.95,3.7s-15.86,7.12-15.86,15.86c0,2.89.8,5.73,2.32,8.23l.41.68-1.59,5.92,5.95-1.59Z"/>
      <path class="cls-1" d="m27.23,22.28c-.81-.48-1.85-1.02-2.8-.63-.73.3-1.19,1.44-1.66,2.02-.24.3-.53.35-.9.2-2.73-1.09-4.83-2.91-6.33-5.42-.26-.39-.21-.7.1-1.06.46-.54,1.03-1.14,1.15-1.87.12-.72-.22-1.57-.51-2.21-.38-.82-.81-1.99-1.63-2.46-.76-.43-1.75-.19-2.43.36-1.16.95-1.73,2.43-1.71,3.91,0,.42.06.84.15,1.24.23.97.68,1.88,1.19,2.74.38.65.79,1.28,1.24,1.89,1.46,1.98,3.28,3.71,5.38,5,1.05.64,2.18,1.21,3.36,1.6,1.32.43,2.49.89,3.91.62,1.49-.28,2.95-1.2,3.54-2.64.17-.42.26-.9.16-1.35-.2-.93-1.46-1.48-2.21-1.93Z"/>
    </g>
  </g>
</svg>