<?xml version="1.0" encoding="UTF-8"?>
<svg id="Layer_2" data-name="Layer 2" xmlns="http://www.w3.org/2000/svg" width="18.46" height="18.5" viewBox="0 0 18.46 18.5">
  <defs>
    <style>
      .cls-1 {
        fill-rule: evenodd;
      }

      .cls-1, .cls-2 {
        fill: #0bc5bb;
        stroke-width: 0px;
      }
    </style>
  </defs>
  <g id="Layer_1-2" data-name="Layer 1">
    <g>
      <path class="cls-2" d="m0,18.5l1.33-4.95c-.75-1.35-1.15-2.87-1.15-4.41C.18,4.1,4.28,0,9.32,0s9.14,4.1,9.14,9.14-4.1,9.14-9.14,9.14c-1.51,0-3.01-.38-4.34-1.11l-4.97,1.33Zm5.22-3.19l.31.19c1.15.69,2.46,1.05,3.78,1.05,4.09,0,7.41-3.32,7.41-7.41S13.4,1.73,9.32,1.73,1.91,5.05,1.91,9.14c0,1.35.37,2.68,1.08,3.84l.19.32-.74,2.76,2.78-.74Z"/>
      <path class="cls-1" d="m12.72,10.41c-.38-.23-.87-.48-1.31-.29-.34.14-.56.67-.78.94-.11.14-.25.16-.42.09-1.28-.51-2.25-1.36-2.96-2.53-.12-.18-.1-.33.05-.5.21-.25.48-.53.54-.87.06-.34-.1-.73-.24-1.03-.18-.38-.38-.93-.76-1.15-.35-.2-.82-.09-1.13.17-.54.44-.81,1.14-.8,1.82,0,.2.03.39.07.58.11.45.32.88.56,1.28.18.3.37.6.58.88.68.93,1.53,1.73,2.51,2.34.49.3,1.02.56,1.57.75.61.2,1.16.41,1.83.29.69-.13,1.38-.56,1.66-1.23.08-.2.12-.42.08-.63-.09-.43-.68-.69-1.03-.9Z"/>
    </g>
  </g>
</svg>